<?xml version="1.0" encoding="UTF-8"?>
<svg version="1.1" xmlns="http://www.w3.org/2000/svg" width="500" height="500">
<path d="M0 0 C2.61055594 -0.24890658 4.96094922 -0.3272977 7.5625 -0.25 C8.60954102 -0.24226563 8.60954102 -0.24226563 9.67773438 -0.234375 C14.8458282 -0.1541718 14.8458282 -0.1541718 16 1 C16.08871273 4.02977804 16.1151935 7.03667022 16.09765625 10.06640625 C16.0962413 10.97502914 16.09482635 11.88365204 16.09336853 12.81980896 C16.08775193 15.73407221 16.07519665 18.64825981 16.0625 21.5625 C16.05748714 23.53320202 16.05292386 25.50390524 16.04882812 27.47460938 C16.03862617 32.31645914 16.01905409 37.15814447 16 42 C21.94 42 27.88 42 34 42 C33.98839844 39.05191406 33.97679687 36.10382813 33.96484375 33.06640625 C33.95705384 30.22355253 33.9509767 27.38069998 33.94506836 24.5378418 C33.94002733 22.55606559 33.93319462 20.57429311 33.92456055 18.5925293 C33.91248485 15.75047891 33.90676955 12.90847753 33.90234375 10.06640625 C33.89718246 9.17474258 33.89202118 8.28307892 33.88670349 7.36439514 C33.88650823 5.24259399 33.9378997 3.1208922 34 1 C35 0 35 0 38.59765625 -0.09765625 C40.08596867 -0.0909822 41.57426432 -0.07902183 43.0625 -0.0625 C43.82111328 -0.05798828 44.57972656 -0.05347656 45.36132812 -0.04882812 C47.24091871 -0.0370068 49.12046899 -0.01907078 51 0 C52.20891936 4.25147186 52.02497788 8.3236424 51.87890625 12.703125 C51.85529526 13.54091492 51.83168427 14.37870483 51.80735779 15.24188232 C51.73093142 17.91143631 51.64681692 20.58068472 51.5625 23.25 C51.50925825 25.06248517 51.45651799 26.87498514 51.40429688 28.6875 C51.27628488 33.12524929 51.13787636 37.56250237 51 42 C57.27 41.67 63.54 41.34 70 41 C69.98839844 38.12410156 69.97679687 35.24820313 69.96484375 32.28515625 C69.95705375 29.51180125 69.95097667 26.73844746 69.94506836 23.96508789 C69.94002744 22.03181415 69.93319481 20.09854424 69.92456055 18.1652832 C69.91248435 15.39273128 69.90676943 12.62022959 69.90234375 9.84765625 C69.89718246 8.97786636 69.89202118 8.10807648 69.88670349 7.21192932 C69.88650815 5.14094186 69.93791832 3.07005676 70 1 C71 0 71 0 74.59765625 -0.09765625 C76.08596867 -0.0909822 77.57426432 -0.07902183 79.0625 -0.0625 C79.82111328 -0.05798828 80.57972656 -0.05347656 81.36132812 -0.04882812 C83.24091871 -0.0370068 85.12046899 -0.01907078 87 0 C87.94538785 3.98902976 88.12891858 7.70995553 88.1328125 11.8046875 C88.13410156 13.11050781 88.13539063 14.41632813 88.13671875 15.76171875 C88.13462402 16.4376709 88.1325293 17.11362305 88.13037109 17.81005859 C88.12503452 19.86172949 88.13032114 21.91317974 88.13671875 23.96484375 C88.13478516 25.92744141 88.13478516 25.92744141 88.1328125 27.9296875 C88.13168457 29.11804199 88.13055664 30.30639648 88.12939453 31.53076172 C88 35 88 35 87 42 C93.6 42 100.2 42 107 42 C106.91621094 39.21949219 106.83242188 36.43898437 106.74609375 33.57421875 C106.66870631 30.88357952 106.59317406 28.19289418 106.51782227 25.50219727 C106.46442575 23.63104709 106.40909821 21.75995098 106.35180664 19.88891602 C106.26983022 17.2008022 106.19478146 14.51257095 106.12109375 11.82421875 C106.08054115 10.56782845 106.08054115 10.56782845 106.03916931 9.28605652 C105.95223041 5.9091632 105.92299332 3.23102004 107 0 C109.64590014 -0.02684679 112.29153096 -0.04676357 114.9375 -0.0625 C115.69224609 -0.07087891 116.44699219 -0.07925781 117.22460938 -0.08789062 C119.14994313 -0.09652441 121.07535581 -0.05224333 123 0 C124 1 124 1 124.11352539 4.87719727 C124.11336621 6.60694167 124.10766849 8.33669081 124.09765625 10.06640625 C124.09553383 11.42934059 124.09553383 11.42934059 124.09336853 12.81980896 C124.08775193 15.73407221 124.07519665 18.64825981 124.0625 21.5625 C124.05748714 23.53320202 124.05292386 25.50390524 124.04882812 27.47460938 C124.03862617 32.31645914 124.01905409 37.15814447 124 42 C129.94 42 135.88 42 142 42 C141.98839844 39.05191406 141.97679687 36.10382813 141.96484375 33.06640625 C141.95705384 30.22355253 141.9509767 27.38069998 141.94506836 24.5378418 C141.94002733 22.55606559 141.93319462 20.57429311 141.92456055 18.5925293 C141.91248485 15.75047891 141.90676955 12.90847753 141.90234375 10.06640625 C141.89718246 9.17474258 141.89202118 8.28307892 141.88670349 7.36439514 C141.88650823 5.24259399 141.9378997 3.1208922 142 1 C143.82116003 -0.82116003 146.30671764 -0.1323508 148.7265625 -0.13671875 C149.85191406 -0.13091797 149.85191406 -0.13091797 151 -0.125 C151.75023437 -0.12886719 152.50046875 -0.13273437 153.2734375 -0.13671875 C158.87338947 -0.12661053 158.87338947 -0.12661053 160 1 C160.08871273 4.02977804 160.1151935 7.03667022 160.09765625 10.06640625 C160.09553383 11.42934059 160.09553383 11.42934059 160.09336853 12.81980896 C160.08775193 15.73407221 160.07519665 18.64825981 160.0625 21.5625 C160.05748714 23.53320202 160.05292386 25.50390524 160.04882812 27.47460938 C160.03777711 32.31643559 160.02050138 37.15820495 160 42 C162.64 42 165.28 42 168 42 C168 46 168 46 166.3203125 47.921875 C165.59585938 48.52515625 164.87140625 49.1284375 164.125 49.75 C163.40570313 50.36359375 162.68640625 50.9771875 161.9453125 51.609375 C160 53 160 53 158 53 C158 53.66 158 54.32 158 55 C157.34 55 156.68 55 156 55 C156 55.66 156 56.32 156 57 C155.34 57 154.68 57 154 57 C154 57.66 154 58.32 154 59 C150.59831473 60.13389509 148.00349396 60.13042779 144.41557312 60.13803101 C143.40739909 60.14226293 143.40739909 60.14226293 142.37885791 60.14658034 C140.12194508 60.15492734 137.8650813 60.15626467 135.6081543 60.15771484 C133.9918504 60.162383 132.37554782 60.16752656 130.75924683 60.17311096 C127.27579051 60.18439392 123.79234277 60.19282715 120.30887413 60.19923019 C114.79994389 60.2099067 109.29107515 60.23015062 103.78218079 60.25234985 C88.11596492 60.31428585 72.44975259 60.36828849 56.78344727 60.40136719 C48.13322452 60.419712 39.48310468 60.44864586 30.83295757 60.4893719 C26.25528278 60.51044356 21.67773767 60.5258994 17.10001183 60.52817917 C12.79322517 60.53032652 8.48670853 60.54620474 4.18000412 60.57256889 C2.60061825 60.57975991 1.02119966 60.5818638 -0.55819893 60.57846642 C-2.7173254 60.57456436 -4.87559255 60.58904864 -7.03462219 60.60800171 C-8.24196172 60.61131186 -9.44930124 60.614622 -10.69322681 60.61803246 C-14.41595633 61.04804739 -16.81876317 62.04301803 -20 64 C-23.98601091 70.0477407 -24.12851293 76.70431104 -24.10679626 83.76846313 C-24.10623956 84.412034 -24.10568285 85.05560487 -24.10510927 85.71867788 C-24.10209596 87.85497209 -24.09192781 89.99117008 -24.08178711 92.12744141 C-24.0782275 93.66713869 -24.07514247 95.20683713 -24.07249451 96.74653625 C-24.0659629 100.05205288 -24.05641632 103.35754208 -24.04459953 106.66304398 C-24.02625983 111.8905401 -24.01669582 117.11802971 -24.00868225 122.34555054 C-23.98456426 137.20695892 -23.94860452 152.06832685 -23.90405273 166.9296875 C-23.87950168 175.14514508 -23.86214265 183.36058701 -23.85249335 191.57607591 C-23.84595383 196.77228339 -23.83040314 201.96836145 -23.80817592 207.16452432 C-23.79644421 210.39551641 -23.79307846 213.62647707 -23.79207802 216.85748863 C-23.78993116 218.35508188 -23.78434161 219.85267476 -23.7750473 221.35024071 C-23.76284641 223.39529424 -23.76419613 225.44041522 -23.76622009 227.48550415 C-23.76307769 228.62957544 -23.75993528 229.77364674 -23.75669765 230.95238686 C-24.22556619 236.82544952 -26.59334548 239.97624617 -30.5625 244.1875 C-33.64185798 247.34188937 -33.64185798 247.34188937 -36 251 C-36.66 251 -37.32 251 -38 251 C-38.33 251.99 -38.66 252.98 -39 254 C-39.99 253.67 -40.98 253.34 -42 253 C-42 250.03 -42 247.06 -42 244 C-43.85516235 244.00785522 -43.85516235 244.00785522 -45.74780273 244.01586914 C-50.31924725 244.03391561 -54.89068859 244.04543071 -59.4621582 244.05493164 C-61.44393441 244.05997267 -63.42570689 244.06680538 -65.4074707 244.07543945 C-68.24952109 244.08751515 -71.09152247 244.09323045 -73.93359375 244.09765625 C-75.27108925 244.10539818 -75.27108925 244.10539818 -76.63560486 244.11329651 C-78.75740601 244.11349177 -80.8791078 244.0621003 -83 244 C-84.82116003 242.17883997 -84.1323508 239.69328236 -84.13671875 237.2734375 C-84.13285156 236.52320313 -84.12898438 235.77296875 -84.125 235 C-84.12886719 234.24976563 -84.13273437 233.49953125 -84.13671875 232.7265625 C-84.12661053 227.12661053 -84.12661053 227.12661053 -83 226 C-79.97022196 225.91128727 -76.96332978 225.8848065 -73.93359375 225.90234375 C-73.02497086 225.9037587 -72.11634796 225.90517365 -71.18019104 225.90663147 C-68.26592779 225.91224807 -65.35174019 225.92480335 -62.4375 225.9375 C-60.46679798 225.94251286 -58.49609476 225.94707614 -56.52539062 225.95117188 C-51.68354086 225.96137383 -46.84185553 225.98094591 -42 226 C-42 220.06 -42 214.12 -42 208 C-46.42212891 208.01740234 -46.42212891 208.01740234 -50.93359375 208.03515625 C-53.77644747 208.04294616 -56.61930002 208.0490233 -59.4621582 208.05493164 C-61.44393441 208.05997267 -63.42570689 208.06680538 -65.4074707 208.07543945 C-68.24952109 208.08751515 -71.09152247 208.09323045 -73.93359375 208.09765625 C-75.27108925 208.10539818 -75.27108925 208.10539818 -76.63560486 208.11329651 C-78.75740601 208.11349177 -80.8791078 208.0621003 -83 208 C-84 207 -84 207 -84.09765625 203.40234375 C-84.0909822 201.91403133 -84.07902183 200.42573568 -84.0625 198.9375 C-84.05798828 198.17888672 -84.05347656 197.42027344 -84.04882812 196.63867188 C-84.0370068 194.75908129 -84.01907078 192.87953101 -84 191 C-79.74852814 189.79108064 -75.6763576 189.97502212 -71.296875 190.12109375 C-70.45908508 190.14470474 -69.62129517 190.16831573 -68.75811768 190.19264221 C-66.08856369 190.26906858 -63.41931528 190.35318308 -60.75 190.4375 C-58.93751483 190.49074175 -57.12501486 190.54348201 -55.3125 190.59570312 C-50.87475071 190.72371512 -46.43749763 190.86212364 -42 191 C-42 184.73 -42 178.46 -42 172 C-46.42212891 172.01740234 -46.42212891 172.01740234 -50.93359375 172.03515625 C-53.77644747 172.04294616 -56.61930002 172.0490233 -59.4621582 172.05493164 C-61.44393441 172.05997267 -63.42570689 172.06680538 -65.4074707 172.07543945 C-68.24952109 172.08751515 -71.09152247 172.09323045 -73.93359375 172.09765625 C-75.27108925 172.10539818 -75.27108925 172.10539818 -76.63560486 172.11329651 C-78.75740601 172.11349177 -80.8791078 172.0621003 -83 172 C-84.82116003 170.17883997 -84.1323508 167.69328236 -84.13671875 165.2734375 C-84.13285156 164.52320313 -84.12898438 163.77296875 -84.125 163 C-84.12886719 162.24976563 -84.13273437 161.49953125 -84.13671875 160.7265625 C-84.12661053 155.12661053 -84.12661053 155.12661053 -83 154 C-79.97022196 153.91128727 -76.96332978 153.8848065 -73.93359375 153.90234375 C-73.02497086 153.9037587 -72.11634796 153.90517365 -71.18019104 153.90663147 C-68.26592779 153.91224807 -65.35174019 153.92480335 -62.4375 153.9375 C-60.46679798 153.94251286 -58.49609476 153.94707614 -56.52539062 153.95117188 C-51.68354086 153.96137383 -46.84185553 153.98094591 -42 154 C-42 147.73 -42 141.46 -42 135 C-55.86 135 -69.72 135 -84 135 C-84 119 -84 119 -83 118 C-79.97022196 117.91128727 -76.96332978 117.8848065 -73.93359375 117.90234375 C-73.02497086 117.9037587 -72.11634796 117.90517365 -71.18019104 117.90663147 C-68.26592779 117.91224807 -65.35174019 117.92480335 -62.4375 117.9375 C-60.46679798 117.94251286 -58.49609476 117.94707614 -56.52539062 117.95117188 C-51.68354086 117.96137383 -46.84185553 117.98094591 -42 118 C-42 112.06 -42 106.12 -42 100 C-46.42212891 100.01740234 -46.42212891 100.01740234 -50.93359375 100.03515625 C-53.77644747 100.04294616 -56.61930002 100.0490233 -59.4621582 100.05493164 C-61.44393441 100.05997267 -63.42570689 100.06680538 -65.4074707 100.07543945 C-68.24952109 100.08751515 -71.09152247 100.09323045 -73.93359375 100.09765625 C-75.27108925 100.10539818 -75.27108925 100.10539818 -76.63560486 100.11329651 C-78.75740601 100.11349177 -80.8791078 100.0621003 -83 100 C-84 99 -84 99 -84.09765625 95.40234375 C-84.0909822 93.91403133 -84.07902183 92.42573568 -84.0625 90.9375 C-84.05798828 90.17888672 -84.05347656 89.42027344 -84.04882812 88.63867188 C-84.0370068 86.75908129 -84.01907078 84.87953101 -84 83 C-80.61606992 81.30803496 -76.77522209 81.88013451 -73.0546875 81.90234375 C-71.72716965 81.90446617 -71.72716965 81.90446617 -70.37283325 81.90663147 C-67.54018809 81.9122386 -64.70762136 81.92479229 -61.875 81.9375 C-59.95703239 81.94251408 -58.03906354 81.94707715 -56.12109375 81.95117188 C-51.41403218 81.96221034 -46.7070294 81.97947975 -42 82 C-42.00303635 81.3822168 -42.00607269 80.76443359 -42.00920105 80.12792969 C-42.01156265 79.31743164 -42.01392426 78.50693359 -42.01635742 77.671875 C-42.01939377 76.8684668 -42.02243011 76.06505859 -42.02555847 75.23730469 C-41.92330197 66.28610672 -39.03512737 58.33038059 -32.91796875 51.765625 C-24.89817819 44.2786655 -17.74015537 41.94355983 -6.79296875 41.98046875 C-5.70910889 41.98328857 -4.62524902 41.9861084 -3.50854492 41.98901367 C-2.6807251 41.99263916 -1.85290527 41.99626465 -1 42 C-1.0407666 40.83428467 -1.0815332 39.66856934 -1.12353516 38.4675293 C-1.27191025 34.14605523 -1.40658666 29.82424436 -1.53710938 25.50219727 C-1.59553918 23.63098284 -1.65769285 21.75988085 -1.72363281 19.88891602 C-1.81772435 17.20089184 -1.8984537 14.5127489 -1.9765625 11.82421875 C-2.00875885 10.98662521 -2.0409552 10.14903168 -2.0741272 9.28605652 C-2.22774341 3.34161512 -2.22774341 3.34161512 0 0 Z " fill="#383C43" transform="translate(171,87)"/>
<path d="M0 0 C0.99 0.33 1.98 0.66 3 1 C3 3.97 3 6.94 3 10 C4.20124512 9.99476318 5.40249023 9.98952637 6.64013672 9.98413086 C11.08674376 9.96606347 15.53334753 9.9545616 19.97998047 9.94506836 C21.90641831 9.94003213 23.83285231 9.93320288 25.75927734 9.92456055 C28.52442368 9.91246392 31.28951958 9.90676467 34.0546875 9.90234375 C35.3516304 9.89460182 35.3516304 9.89460182 36.67477417 9.88670349 C42.77225659 9.88612829 42.77225659 9.88612829 45 11 C45 16.28 45 21.56 45 27 C41.61606992 28.69196504 37.77522209 28.11986549 34.0546875 28.09765625 C33.1696756 28.0962413 32.2846637 28.09482635 31.37283325 28.09336853 C28.54018809 28.0877614 25.70762136 28.07520771 22.875 28.0625 C20.95703239 28.05748592 19.03906354 28.05292285 17.12109375 28.04882812 C12.41400782 28.03863963 7.70709192 28.01906563 3 28 C3 33.94 3 39.88 3 46 C5.94808594 45.98839844 8.89617187 45.97679687 11.93359375 45.96484375 C14.77644747 45.95705384 17.61930002 45.9509767 20.4621582 45.94506836 C22.44393441 45.94002733 24.42570689 45.93319462 26.4074707 45.92456055 C29.24952109 45.91248485 32.09152247 45.90676955 34.93359375 45.90234375 C35.82525742 45.89718246 36.71692108 45.89202118 37.63560486 45.88670349 C39.75740601 45.88650823 41.8791078 45.9378997 44 46 C48.01386486 50.01386486 45 57.32353788 45 63 C31.14 63 17.28 63 3 63 C3 69.27 3 75.54 3 82 C5.86429688 81.98839844 8.72859375 81.97679687 11.6796875 81.96484375 C14.4464507 81.95705038 17.21321268 81.95097521 19.97998047 81.94506836 C21.90641831 81.94003213 23.83285231 81.93320288 25.75927734 81.92456055 C28.52442368 81.91246392 31.28951958 81.90676467 34.0546875 81.90234375 C35.3516304 81.89460182 35.3516304 81.89460182 36.67477417 81.88670349 C42.77225659 81.88612829 42.77225659 81.88612829 45 83 C45.02684679 85.64590014 45.04676357 88.29153096 45.0625 90.9375 C45.07087891 91.69224609 45.07925781 92.44699219 45.08789062 93.22460938 C45.09652441 95.14994313 45.05224333 97.07535581 45 99 C44 100 44 100 40.12280273 100.11352539 C38.39305833 100.11336621 36.66330919 100.10766849 34.93359375 100.09765625 C34.02497086 100.0962413 33.11634796 100.09482635 32.18019104 100.09336853 C29.26592779 100.08775193 26.35174019 100.07519665 23.4375 100.0625 C21.46679798 100.05748714 19.49609476 100.05292386 17.52539062 100.04882812 C12.68354086 100.03862617 7.84185553 100.01905409 3 100 C3 106.27 3 112.54 3 119 C16.86 119 30.72 119 45 119 C45 124.28 45 129.56 45 135 C44 136 44 136 40.12280273 136.11352539 C38.39305833 136.11336621 36.66330919 136.10766849 34.93359375 136.09765625 C34.02497086 136.0962413 33.11634796 136.09482635 32.18019104 136.09336853 C29.26592779 136.08775193 26.35174019 136.07519665 23.4375 136.0625 C21.46679798 136.05748714 19.49609476 136.05292386 17.52539062 136.04882812 C12.68354086 136.03862617 7.84185553 136.01905409 3 136 C3 141.94 3 147.88 3 154 C5.86429688 153.98839844 8.72859375 153.97679687 11.6796875 153.96484375 C14.4464507 153.95705038 17.21321268 153.95097521 19.97998047 153.94506836 C21.90641831 153.94003213 23.83285231 153.93320288 25.75927734 153.92456055 C28.52442368 153.91246392 31.28951958 153.90676467 34.0546875 153.90234375 C35.3516304 153.89460182 35.3516304 153.89460182 36.67477417 153.88670349 C42.77225659 153.88612829 42.77225659 153.88612829 45 155 C45.02684679 157.64590014 45.04676357 160.29153096 45.0625 162.9375 C45.07087891 163.69224609 45.07925781 164.44699219 45.08789062 165.22460938 C45.09652441 167.14994313 45.05224333 169.07535581 45 171 C44 172 44 172 40.12280273 172.11352539 C38.39305833 172.11336621 36.66330919 172.10766849 34.93359375 172.09765625 C34.02497086 172.0962413 33.11634796 172.09482635 32.18019104 172.09336853 C29.26592779 172.08775193 26.35174019 172.07519665 23.4375 172.0625 C21.46679798 172.05748714 19.49609476 172.05292386 17.52539062 172.04882812 C12.68356441 172.03777711 7.84179505 172.02050138 3 172 C3.00725098 172.66966797 3.01450195 173.33933594 3.02197266 174.02929688 C3.03043213 175.36057617 3.03043213 175.36057617 3.0390625 176.71875 C3.04631348 177.59466797 3.05356445 178.47058594 3.06103516 179.37304688 C2.85088054 188.41810168 -0.55206507 196.13539669 -6.66796875 202.82421875 C-13.93394313 209.42511538 -21.55114607 212.16976763 -31.3125 212.0625 C-32.38113281 212.05347656 -33.44976562 212.04445313 -34.55078125 212.03515625 C-35.35902344 212.02355469 -36.16726563 212.01195312 -37 212 C-36.99476318 213.20124512 -36.98952637 214.40249023 -36.98413086 215.64013672 C-36.96606347 220.08674376 -36.9545616 224.53334753 -36.94506836 228.97998047 C-36.94003213 230.90641831 -36.93320288 232.83285231 -36.92456055 234.75927734 C-36.91246392 237.52442368 -36.90676467 240.28951958 -36.90234375 243.0546875 C-36.89718246 243.9193161 -36.89202118 244.7839447 -36.88670349 245.67477417 C-36.88612829 251.77225659 -36.88612829 251.77225659 -38 254 C-40.64590014 254.02684679 -43.29153096 254.04676357 -45.9375 254.0625 C-46.69224609 254.07087891 -47.44699219 254.07925781 -48.22460938 254.08789062 C-50.14994313 254.09652441 -52.07535581 254.05224333 -54 254 C-55 253 -55 253 -55.11352539 249.12280273 C-55.11336621 247.39305833 -55.10766849 245.66330919 -55.09765625 243.93359375 C-55.09553383 242.57065941 -55.09553383 242.57065941 -55.09336853 241.18019104 C-55.08775193 238.26592779 -55.07519665 235.35174019 -55.0625 232.4375 C-55.05748714 230.46679798 -55.05292386 228.49609476 -55.04882812 226.52539062 C-55.03862617 221.68354086 -55.01905409 216.84185553 -55 212 C-60.94 212 -66.88 212 -73 212 C-72.98839844 214.94808594 -72.97679687 217.89617187 -72.96484375 220.93359375 C-72.95705384 223.77644747 -72.9509767 226.61930002 -72.94506836 229.4621582 C-72.94002733 231.44393441 -72.93319462 233.42570689 -72.92456055 235.4074707 C-72.91248485 238.24952109 -72.90676955 241.09152247 -72.90234375 243.93359375 C-72.89718246 244.82525742 -72.89202118 245.71692108 -72.88670349 246.63560486 C-72.88650823 248.75740601 -72.9378997 250.8791078 -73 253 C-73.33 253.33 -73.66 253.66 -74 254 C-79.28 254 -84.56 254 -90 254 C-90.33 240.47 -90.66 226.94 -91 213 C-96.94 212.67 -102.88 212.34 -109 212 C-108.98839844 214.86429688 -108.97679687 217.72859375 -108.96484375 220.6796875 C-108.95705038 223.4464507 -108.95097521 226.21321268 -108.94506836 228.97998047 C-108.94003213 230.90641831 -108.93320288 232.83285231 -108.92456055 234.75927734 C-108.91246392 237.52442368 -108.90676467 240.28951958 -108.90234375 243.0546875 C-108.89718246 243.9193161 -108.89202118 244.7839447 -108.88670349 245.67477417 C-108.88612829 251.77225659 -108.88612829 251.77225659 -110 254 C-112.64590014 254.02684679 -115.29153096 254.04676357 -117.9375 254.0625 C-118.69224609 254.07087891 -119.44699219 254.07925781 -120.22460938 254.08789062 C-122.14994313 254.09652441 -124.07535581 254.05224333 -126 254 C-127 253 -127 253 -127.11352539 249.12280273 C-127.11336621 247.39305833 -127.10766849 245.66330919 -127.09765625 243.93359375 C-127.0962413 243.02497086 -127.09482635 242.11634796 -127.09336853 241.18019104 C-127.08775193 238.26592779 -127.07519665 235.35174019 -127.0625 232.4375 C-127.05748714 230.46679798 -127.05292386 228.49609476 -127.04882812 226.52539062 C-127.03862617 221.68354086 -127.01905409 216.84185553 -127 212 C-132.94 212.33 -138.88 212.66 -145 213 C-144.98839844 215.79210937 -144.97679687 218.58421875 -144.96484375 221.4609375 C-144.95705021 224.15820197 -144.95097513 226.85546519 -144.94506836 229.55273438 C-144.94003237 231.43066975 -144.93320329 233.3086012 -144.92456055 235.18652344 C-144.91246287 237.88217132 -144.90676443 240.57776747 -144.90234375 243.2734375 C-144.89718246 244.11619232 -144.89202118 244.95894714 -144.88670349 245.82723999 C-144.88612829 251.77225659 -144.88612829 251.77225659 -146 254 C-148.64590014 254.02684679 -151.29153096 254.04676357 -153.9375 254.0625 C-154.69224609 254.07087891 -155.44699219 254.07925781 -156.22460938 254.08789062 C-158.14994313 254.09652441 -160.07535581 254.05224333 -162 254 C-163 253 -163 253 -163.11352539 249.12280273 C-163.11336621 247.39305833 -163.10766849 245.66330919 -163.09765625 243.93359375 C-163.0962413 243.02497086 -163.09482635 242.11634796 -163.09336853 241.18019104 C-163.08775193 238.26592779 -163.07519665 235.35174019 -163.0625 232.4375 C-163.05748714 230.46679798 -163.05292386 228.49609476 -163.04882812 226.52539062 C-163.03862617 221.68354086 -163.01905409 216.84185553 -163 212 C-168.94 212 -174.88 212 -181 212 C-180.98839844 214.94808594 -180.97679687 217.89617187 -180.96484375 220.93359375 C-180.95705384 223.77644747 -180.9509767 226.61930002 -180.94506836 229.4621582 C-180.94002733 231.44393441 -180.93319462 233.42570689 -180.92456055 235.4074707 C-180.91248485 238.24952109 -180.90676955 241.09152247 -180.90234375 243.93359375 C-180.89718246 244.82525742 -180.89202118 245.71692108 -180.88670349 246.63560486 C-180.88650823 248.75740601 -180.9378997 250.8791078 -181 253 C-182 254 -182 254 -185.59765625 254.09765625 C-187.08596867 254.0909822 -188.57426432 254.07902183 -190.0625 254.0625 C-190.82111328 254.05798828 -191.57972656 254.05347656 -192.36132812 254.04882812 C-194.24091871 254.0370068 -196.12046899 254.01907078 -198 254 C-198.94864925 249.22721102 -199.13171421 244.60534023 -199.09765625 239.7578125 C-199.0962413 238.98944061 -199.09482635 238.22106873 -199.09336853 237.42941284 C-199.08780683 234.99456761 -199.0752616 232.55981706 -199.0625 230.125 C-199.05748004 228.46614717 -199.05291801 226.80729288 -199.04882812 225.1484375 C-199.03784998 221.0989223 -199.02061206 217.04947716 -199 213 C-201.64 212.67 -204.28 212.34 -207 212 C-207 208 -207 208 -204.8828125 205.640625 C-203.51769531 204.45726562 -203.51769531 204.45726562 -202.125 203.25 C-200.76761719 202.05117188 -200.76761719 202.05117188 -199.3828125 200.828125 C-197 199 -197 199 -195 199 C-195 198.34 -195 197.68 -195 197 C-194.34 197 -193.68 197 -193 197 C-193 196.34 -193 195.68 -193 195 C-189.65848217 193.88616072 -187.19132019 193.88526674 -183.67027283 193.89993286 C-183.02548039 193.90119513 -182.38068794 193.90245741 -181.71635634 193.90375793 C-179.55166536 193.90914339 -177.38707334 193.92166932 -175.22241211 193.93408203 C-173.67171375 193.93927465 -172.1210137 193.9439829 -170.5703125 193.94824219 C-167.22762975 193.95819083 -163.8849749 193.9710439 -160.54231071 193.98596573 C-155.25075731 194.00902645 -149.95920772 194.02233306 -144.6676178 194.03366089 C-129.61893904 194.06709306 -114.57031548 194.10858551 -99.52172852 194.17138672 C-91.21286457 194.20597959 -82.90404214 194.22974452 -74.59511381 194.24159515 C-70.20058022 194.24834968 -65.80622244 194.26073967 -61.41175652 194.28662491 C-57.27246965 194.31100422 -53.13338255 194.32126865 -48.99402618 194.32102966 C-47.4807899 194.32343793 -45.96755109 194.33095343 -44.4543705 194.34415817 C-30.56518588 194.71426531 -30.56518588 194.71426531 -18.5 188.8125 C-14.0937463 180.55077431 -14.74495322 171.66564956 -14.82055664 162.57543945 C-14.8260386 161.01589242 -14.83058611 159.45634186 -14.83427429 157.89678955 C-14.84395043 154.55141956 -14.85974461 151.20615514 -14.88023567 147.86083412 C-14.91215486 142.57025802 -14.92756816 137.27971188 -14.94029236 131.98905945 C-14.97431141 118.85376813 -15.02709694 105.71856059 -15.0894165 92.58337402 C-15.137868 82.36269739 -15.17994782 72.14209461 -15.20092481 61.92131966 C-15.21244438 56.66230826 -15.23784934 51.40360378 -15.27367222 46.14470446 C-15.29286196 42.8754728 -15.29954463 39.6063036 -15.30273628 36.33702087 C-15.30675518 34.82167453 -15.31594611 33.30633171 -15.33069992 31.79105186 C-15.3501228 29.72169555 -15.35098523 27.65312009 -15.3473053 25.58369446 C-15.35266831 24.4261733 -15.35803133 23.26865213 -15.36355686 22.07605457 C-14.73295255 16.74051154 -11.49572912 12.94679094 -8 9 C-7.34 9 -6.68 9 -6 9 C-5.62875 8.1646875 -5.62875 8.1646875 -5.25 7.3125 C-3.78393985 4.60028873 -1.97010529 2.36412635 0 0 Z " fill="#363B41" transform="translate(368,159)"/>
<path d="M0 0 C0.495 1.485 0.495 1.485 1 3 C0.67 3.66 0.34 4.32 0 5 C-0.66 5 -1.32 5 -2 5 C-2 5.66 -2 6.32 -2 7 C-3.29296875 8.26953125 -3.29296875 8.26953125 -5.1875 9.8125 C-9.74310488 13.67222208 -13.91054197 17.84887867 -18.07885742 22.11645508 C-20.88682317 24.96875026 -23.74895055 27.6803798 -26.7890625 30.28515625 C-32.68101715 35.37391919 -38.02792825 41.01946649 -43.4609375 46.58789062 C-44.275625 47.41353516 -45.0903125 48.23917969 -45.9296875 49.08984375 C-46.66429199 49.84128662 -47.39889648 50.59272949 -48.15576172 51.36694336 C-50 53 -50 53 -52 53 C-52 53.66 -52 54.32 -52 55 C-52.66 55 -53.32 55 -54 55 C-54 55.66 -54 56.32 -54 57 C-54.66 57 -55.32 57 -56 57 C-56 57.66 -56 58.32 -56 59 C-56.66 59 -57.32 59 -58 59 C-58 59.66 -58 60.32 -58 61 C-58.66 61 -59.32 61 -60 61 C-60 61.66 -60 62.32 -60 63 C-61.375 64.625 -61.375 64.625 -63 66 C-63.66 66 -64.32 66 -65 66 C-65 66.66 -65 67.32 -65 68 C-65.66 68 -66.32 68 -67 68 C-67 68.66 -67 69.32 -67 70 C-67.66 70 -68.32 70 -69 70 C-69 70.66 -69 71.32 -69 72 C-69.66 72 -70.32 72 -71 72 C-71 72.66 -71 73.32 -71 74 C-71.66 74 -72.32 74 -73 74 C-73.23630127 74.56299805 -73.47260254 75.12599609 -73.71606445 75.70605469 C-75.29807106 78.5325491 -77.22864009 80.43604599 -79.54296875 82.703125 C-80.45240234 83.60160156 -81.36183594 84.50007813 -82.29882812 85.42578125 C-83.26134531 86.36756931 -84.22423819 87.30897355 -85.1875 88.25 C-90.78180719 93.74006544 -96.29429562 99.20406075 -101.38891602 105.1640625 C-104.06816935 108.21725011 -106.97065027 111.03788058 -109.875 113.875 C-113.91777506 117.56790637 -113.91777506 117.56790637 -117 122 C-117.66 122 -118.32 122 -119 122 C-119.2475 122.639375 -119.495 123.27875 -119.75 123.9375 C-121 126 -121 126 -123.125 126.75 C-123.74375 126.8325 -124.3625 126.915 -125 127 C-125.96920951 124.09237147 -126.1181858 122.29005631 -126.10247803 119.26907349 C-126.09977402 118.29613342 -126.09707001 117.32319336 -126.09428406 116.32077026 C-126.08605118 115.25472565 -126.0778183 114.18868103 -126.06933594 113.09033203 C-126.06454727 111.96651123 -126.05975861 110.84269043 -126.05482483 109.68481445 C-126.03709931 105.95909035 -126.01136475 102.23348037 -125.984375 98.5078125 C-125.96768756 95.92332983 -125.95102529 93.338847 -125.93438721 90.75436401 C-125.90255051 86.0254565 -125.86781752 81.2965918 -125.82973552 76.56773102 C-125.77371919 69.61073234 -125.73069114 62.65381541 -125.69905448 55.69666398 C-125.67078422 49.66787989 -125.62622875 43.63932738 -125.57575226 37.61068344 C-125.55653782 35.04704845 -125.54225169 32.48337167 -125.53295135 29.91968155 C-125.51864448 26.33567122 -125.48574853 22.75228927 -125.44824219 19.16845703 C-125.44810623 18.10646088 -125.44797028 17.04446472 -125.4478302 15.95028687 C-125.31783009 6.85261954 -125.31783009 6.85261954 -122 3 C-118.32741011 0.55160674 -115.53887512 0.69353405 -111.28857422 0.68115234 C-110.50233673 0.67110672 -109.71609924 0.6610611 -108.90603638 0.65071106 C-106.28892724 0.61968977 -103.67192356 0.60274859 -101.0546875 0.5859375 C-99.20988134 0.567184 -97.36508337 0.54760763 -95.52029419 0.5272522 C-90.63064702 0.47573732 -85.74097034 0.43631434 -80.85119629 0.39910889 C-76.96425988 0.36762249 -73.07743174 0.32785634 -69.19057846 0.28753281 C-46.12682454 0.04839261 -23.06492721 -0.05923509 0 0 Z " fill="#373B42" transform="translate(295,169)"/>
<path d="M0 0 C2.4696487 2.4696487 2.25236228 3.16077677 2.26069641 6.55924988 C2.26778122 7.5195108 2.27486603 8.47977173 2.28216553 9.46913147 C2.27968811 10.52627853 2.27721069 11.5834256 2.2746582 12.67260742 C2.27976913 13.78331604 2.28488007 14.89402466 2.29014587 16.03839111 C2.30409853 19.72747113 2.30308029 23.41636541 2.30078125 27.10546875 C2.30466617 29.66417002 2.30900041 32.22287065 2.31376648 34.78157043 C2.32124171 40.15429028 2.32106655 45.52694157 2.31567383 50.8996582 C2.30964534 57.10034387 2.32191347 63.30080198 2.3432439 69.50144881 C2.36302417 75.47191286 2.36602839 81.44230681 2.36250877 87.41280556 C2.3630221 89.94970546 2.36826189 92.48660898 2.37832069 95.023489 C2.39067262 98.57597652 2.38389932 102.12794062 2.37231445 105.68041992 C2.37995819 106.72744583 2.38760193 107.77447174 2.39547729 108.85322571 C2.35376415 114.64760948 2.01534313 118.97783967 -1 124 C-5.43830277 128.28082134 -11.51702307 127.44009601 -17.30786133 127.43237305 C-18.44975922 127.4425647 -19.5916571 127.45275635 -20.76815796 127.46325684 C-24.53949868 127.49343161 -28.31058558 127.50265994 -32.08203125 127.51171875 C-34.69806261 127.52856205 -37.31408587 127.54671181 -39.93009949 127.56611633 C-46.10999234 127.60975375 -52.28985887 127.63831755 -58.46985883 127.66143972 C-65.5074038 127.68850626 -72.54481231 127.73241681 -79.58225977 127.77772844 C-94.05475983 127.87053508 -108.5273182 127.94223402 -123 128 C-123.495 125.525 -123.495 125.525 -124 123 C-123.20335937 122.31164062 -123.20335937 122.31164062 -122.390625 121.609375 C-117.8947499 117.70720627 -117.8947499 117.70720627 -113.625 113.5625 C-112 112 -112 112 -110 112 C-110 111.34 -110 110.68 -110 110 C-109.34 110 -108.68 110 -108 110 C-108 109.34 -108 108.68 -108 108 C-106.70703125 106.73046875 -106.70703125 106.73046875 -104.8125 105.1875 C-100.04409741 101.16389279 -95.72201382 96.75400395 -91.39379883 92.26831055 C-89.96517864 90.80941666 -88.48635008 89.4000323 -87 88 C-86.34 88 -85.68 88 -85 88 C-85 87.34 -85 86.68 -85 86 C-84.34 86 -83.68 86 -83 86 C-83 85.34 -83 84.68 -83 84 C-82.34 84 -81.68 84 -81 84 C-81 83.34 -81 82.68 -81 82 C-80.34 82 -79.68 82 -79 82 C-79 81.34 -79 80.68 -79 80 C-77.63671875 78.66015625 -77.63671875 78.66015625 -75.6875 77.0625 C-71.9842528 73.91673088 -68.49761908 70.61924083 -65.0625 67.1875 C-64.5780542 66.70740479 -64.0936084 66.22730957 -63.59448242 65.73266602 C-60.96667347 63.11528876 -60.96667347 63.11528876 -59 60 C-58.34 60 -57.68 60 -57 60 C-57 59.34 -57 58.68 -57 58 C-56.34 58 -55.68 58 -55 58 C-55 57.34 -55 56.68 -55 56 C-54.34 56 -53.68 56 -53 56 C-53 55.34 -53 54.68 -53 54 C-52.34 54 -51.68 54 -51 54 C-50.78174561 53.45504883 -50.56349121 52.91009766 -50.33862305 52.34863281 C-48.55652341 49.22191413 -46.1380162 46.91100199 -43.58203125 44.421875 C-43.04656174 43.89160706 -42.51109222 43.36133911 -41.95939636 42.81500244 C-40.24846248 41.12182944 -38.53101232 39.43547792 -36.8125 37.75 C-34.56558359 35.53990779 -32.32191953 33.32659 -30.08203125 31.109375 C-29.54201477 30.57494781 -29.00199829 30.04052063 -28.44561768 29.48989868 C-24.96360643 26.02114161 -21.66376354 22.44834302 -18.47827148 18.703125 C-15.71703379 15.52188731 -12.67343194 12.63225024 -9.65625 9.6953125 C-6.98675315 7.10863427 -6.98675315 7.10863427 -5 4 C-4.34 4 -3.68 4 -3 4 C-2.67 3.01 -2.34 2.02 -2 1 C-1.34 0.67 -0.68 0.34 0 0 Z " fill="#373C42" transform="translate(329,203)"/>
<path d="M0 0 C-1.35108966 2.96325944 -2.88706648 5.20785165 -5.0625 7.625 C-5.67609375 8.31207031 -6.2896875 8.99914062 -6.921875 9.70703125 C-8.41128297 11.35041937 -9.90088921 12.9936278 -11.390625 14.63671875 C-12.18984375 15.51972656 -12.9890625 16.40273437 -13.8125 17.3125 C-14.56144531 18.13363281 -15.31039063 18.95476562 -16.08203125 19.80078125 C-18.12519492 22.04822519 -18.12519492 22.04822519 -20 25 C-20.66 25 -21.32 25 -22 25 C-22.24621094 25.56460938 -22.49242187 26.12921875 -22.74609375 26.7109375 C-24.21854254 29.39895928 -25.98304279 31.37317156 -28.0625 33.625 C-29.25746094 34.93017578 -29.25746094 34.93017578 -30.4765625 36.26171875 C-31.30929687 37.16535156 -32.14203125 38.06898437 -33 39 C-34.64890226 40.80970852 -36.29486747 42.62209867 -37.9375 44.4375 C-39.03384766 45.64212891 -39.03384766 45.64212891 -40.15234375 46.87109375 C-42.13327581 49.06292965 -42.13327581 49.06292965 -44 52 C-44.66 52 -45.32 52 -46 52 C-46 52.66 -46 53.32 -46 54 C-46.66 54 -47.32 54 -48 54 C-48.32484375 54.80244141 -48.32484375 54.80244141 -48.65625 55.62109375 C-50.48317222 58.85538338 -52.95883813 61.38672878 -55.5 64.0625 C-58.21130519 66.93844517 -60.79846483 69.69769724 -63 73 C-63.66 73 -64.32 73 -65 73 C-65.25523437 73.57741943 -65.51046875 74.15483887 -65.7734375 74.74975586 C-67.12787296 77.23459495 -68.66382735 78.96679676 -70.625 81.00390625 C-71.33140625 81.74447266 -72.0378125 82.48503906 -72.765625 83.24804688 C-73.50296875 84.01181641 -74.2403125 84.77558594 -75 85.5625 C-76.46027697 87.08277087 -77.91869244 88.60483255 -79.375 90.12890625 C-80.02210938 90.79994385 -80.66921875 91.47098145 -81.3359375 92.16235352 C-83.17416433 94.10164262 -83.17416433 94.10164262 -85 97 C-85.66 97 -86.32 97 -87 97 C-87 97.66 -87 98.32 -87 99 C-87.66 99 -88.32 99 -89 99 C-89.24621094 99.57492188 -89.49242187 100.14984375 -89.74609375 100.7421875 C-91.19793053 103.35639827 -92.90287549 105.06336208 -95.0625 107.125 C-97.91571933 109.77905 -97.91571933 109.77905 -100 113 C-100.66 113 -101.32 113 -102 113 C-102 113.66 -102 114.32 -102 115 C-102.66 115 -103.32 115 -104 115 C-104.2578125 115.57234375 -104.515625 116.1446875 -104.78125 116.734375 C-106.11365942 119.21128995 -107.65056118 121.1341166 -109.5 123.25 C-110.1084375 123.95640625 -110.716875 124.6628125 -111.34375 125.390625 C-113 127 -113 127 -115 127 C-115 127.66 -115 128.32 -115 129 C-115.66 129 -116.32 129 -117 129 C-117 129.66 -117 130.32 -117 131 C-117.66 131 -118.32 131 -119 131 C-119.2678833 131.59458008 -119.5357666 132.18916016 -119.81176758 132.80175781 C-121.01210673 135.02239757 -122.20702998 136.4243607 -124.01171875 138.171875 C-124.60533203 138.75453125 -125.19894531 139.3371875 -125.81054688 139.9375 C-126.42994141 140.535625 -127.04933594 141.13375 -127.6875 141.75 C-131.35042662 145.30669782 -134.93364991 148.86399132 -138.25341797 152.74682617 C-141.88238713 156.91859102 -145.70645957 160.85126725 -149.62109375 164.75390625 C-150.67648094 165.81072853 -150.67648094 165.81072853 -151.75318909 166.88890076 C-153.23014648 168.36653367 -154.70834742 169.84292457 -156.18774414 171.31811523 C-158.43165085 173.55666481 -160.67016704 175.80050473 -162.90820312 178.04492188 C-164.35384618 179.48990404 -165.79979945 180.93457592 -167.24609375 182.37890625 C-167.9046788 183.03951553 -168.56326385 183.70012482 -169.24180603 184.38075256 C-173.09939345 188.21926549 -177.06223532 191.8745313 -181.19682312 195.41357422 C-184.63741135 198.44058612 -187.77642468 201.77347433 -190.94921875 205.07617188 C-192.2639718 206.41980193 -193.62816888 207.71469976 -195 209 C-195.66 209 -196.32 209 -197 209 C-197 209.66 -197 210.32 -197 211 C-197.66 211 -198.32 211 -199 211 C-199 211.66 -199 212.32 -199 213 C-200.46875 214.4453125 -200.46875 214.4453125 -202.5 216.125 C-205.46677361 218.64257902 -208.27574249 221.22168976 -211 224 C-214.23466024 227.28540001 -217.60862049 230.32652542 -221.109375 233.32421875 C-222.9527856 234.95815087 -224.66516162 236.66541022 -226.375 238.4375 C-229 241 -229 241 -231 241 C-231 241.66 -231 242.32 -231 243 C-232.46875 244.4453125 -232.46875 244.4453125 -234.5 246.125 C-237.46677361 248.64257902 -240.27574249 251.22168976 -243 254 C-253.26503759 264.3862782 -253.26503759 264.3862782 -259 267 C-259 267.66 -259 268.32 -259 269 C-260.328125 270.33984375 -260.328125 270.33984375 -262.25 271.9375 C-265.9097428 275.04568582 -269.47322813 278.24255333 -273 281.5 C-277.0156661 285.19664409 -281.05391257 288.86040147 -285.18359375 292.4296875 C-286.45529868 293.52909692 -287.71759474 294.63944086 -288.97265625 295.7578125 C-289.60042969 296.31210937 -290.22820312 296.86640625 -290.875 297.4375 C-291.70644531 298.17806641 -291.70644531 298.17806641 -292.5546875 298.93359375 C-294 300 -294 300 -296 300 C-296 300.66 -296 301.32 -296 302 C-297.4609375 303.5078125 -297.4609375 303.5078125 -299.375 305.125 C-300.00148438 305.66382813 -300.62796875 306.20265625 -301.2734375 306.7578125 C-303 308 -303 308 -305 308 C-305 308.66 -305 309.32 -305 310 C-310.47619048 315 -310.47619048 315 -313 315 C-313 315.66 -313 316.32 -313 317 C-313.66 317 -314.32 317 -315 317 C-315 317.66 -315 318.32 -315 319 C-320.35714286 324 -320.35714286 324 -324 324 C-322.68120833 321.13005812 -321.22904698 318.91254253 -319.125 316.5625 C-318.50625 315.86898438 -317.8875 315.17546875 -317.25 314.4609375 C-315.5708454 312.62436216 -313.88399221 310.79699416 -312.1875 308.9765625 C-311.16646772 307.88039361 -310.14564 306.78403415 -309.125 305.6875 C-308.33984009 304.84421143 -308.33984009 304.84421143 -307.53881836 303.98388672 C-304.45419385 300.64711437 -301.52066316 297.24368212 -298.6875 293.6875 C-294.08473671 287.93617286 -289.04788078 282.62862131 -283.96362305 277.30541992 C-283.33625244 276.64646729 -282.70888184 275.98751465 -282.0625 275.30859375 C-281.49660156 274.71876709 -280.93070313 274.12894043 -280.34765625 273.52124023 C-278.90435404 272.0240037 -278.90435404 272.0240037 -278 270 C-277.34 270 -276.68 270 -276 270 C-276 269.34 -276 268.68 -276 268 C-275.34 268 -274.68 268 -274 268 C-273.7321167 267.40993164 -273.4642334 266.81986328 -273.18823242 266.21191406 C-271.98826517 263.97815542 -270.73387987 262.43726575 -268.98828125 260.609375 C-268.39909912 259.98667725 -267.80991699 259.36397949 -267.20288086 258.72241211 C-266.57905518 258.07151611 -265.95522949 257.42062012 -265.3125 256.75 C-264.02774342 255.39278075 -262.74387729 254.03471799 -261.4609375 252.67578125 C-260.85217773 252.03205566 -260.24341797 251.38833008 -259.61621094 250.72509766 C-257.3144075 248.26821804 -255.11768299 245.73016803 -252.92578125 243.17578125 C-249.48583272 239.28926739 -245.91359822 235.52204292 -242.35327148 231.74584961 C-241.80614502 231.16198486 -241.25901855 230.57812012 -240.6953125 229.9765625 C-240.20047363 229.45143066 -239.70563477 228.92629883 -239.19580078 228.38525391 C-237.89287448 226.99069181 -237.89287448 226.99069181 -237 225 C-236.34 225 -235.68 225 -235 225 C-235 224.34 -235 223.68 -235 223 C-234.34 223 -233.68 223 -233 223 C-233 222.34 -233 221.68 -233 221 C-232.34 221 -231.68 221 -231 221 C-230.75378906 220.42507813 -230.50757813 219.85015625 -230.25390625 219.2578125 C-228.80206947 216.64360173 -227.09712451 214.93663792 -224.9375 212.875 C-222.08428067 210.22095 -222.08428067 210.22095 -220 207 C-219.34 207 -218.68 207 -218 207 C-217.76667969 206.43796875 -217.53335938 205.8759375 -217.29296875 205.296875 C-215.68062924 202.43265858 -213.6806438 200.52747979 -211.3125 198.25 C-208.31241391 195.31401831 -205.39678187 192.39371046 -202.6875 189.1875 C-198.83520644 184.66685672 -194.59513297 180.54336677 -190.35424805 176.39135742 C-187.29802352 173.48734215 -187.29802352 173.48734215 -185 170 C-184.34 170 -183.68 170 -183 170 C-182.78537109 169.46084961 -182.57074219 168.92169922 -182.34960938 168.36621094 C-180.51478949 165.14930168 -178.01414382 162.72860745 -175.40625 160.140625 C-174.85892212 159.59138367 -174.31159424 159.04214233 -173.74768066 158.47625732 C-172.5935222 157.32074141 -171.43684833 156.16773315 -170.27783203 155.01708984 C-168.49926054 153.249265 -166.73165237 151.4709787 -164.96484375 149.69140625 C-163.84178692 148.56967029 -162.71811024 147.44855449 -161.59375 146.328125 C-161.0635022 145.79382874 -160.53325439 145.25953247 -159.98693848 144.70904541 C-156.22993854 141 -156.22993854 141 -154 141 C-154 140.34 -154 139.68 -154 139 C-152.4609375 137.484375 -152.4609375 137.484375 -150.375 135.75 C-147.65952241 133.45339927 -145.08737736 131.12849225 -142.625 128.5625 C-140 126 -140 126 -138 126 C-138 125.34 -138 124.68 -138 124 C-137.34 124 -136.68 124 -136 124 C-136 123.34 -136 122.68 -136 122 C-134.56640625 120.58984375 -134.56640625 120.58984375 -132.5625 118.9375 C-128.41038212 115.42929345 -124.64192767 111.64549595 -120.8828125 107.72265625 C-119 106 -119 106 -117 106 C-117 105.34 -117 104.68 -117 104 C-116.34 104 -115.68 104 -115 104 C-115 103.34 -115 102.68 -115 102 C-114.34 102 -113.68 102 -113 102 C-113 101.34 -113 100.68 -113 100 C-111.53125 98.5546875 -111.53125 98.5546875 -109.5 96.875 C-105.6500766 93.62106119 -102.13935665 90.15227282 -98.6640625 86.50390625 C-97 85 -97 85 -95 85 C-95 84.34 -95 83.68 -95 83 C-94.34 83 -93.68 83 -93 83 C-93 82.34 -93 81.68 -93 81 C-91.49609375 79.51953125 -91.49609375 79.51953125 -89.4375 77.8125 C-86.6746132 75.46720242 -84.03320243 73.09170595 -81.5 70.5 C-71.70224719 60.56741573 -71.70224719 60.56741573 -67 59 C-67 58.34 -67 57.68 -67 57 C-66.34 57 -65.68 57 -65 57 C-65 56.34 -65 55.68 -65 55 C-63.671875 53.66015625 -63.671875 53.66015625 -61.75 52.0625 C-59.06723221 49.79320538 -56.43344885 47.49329006 -53.8671875 45.09375 C-53.33125977 44.59351318 -52.79533203 44.09327637 -52.24316406 43.57788086 C-51.17155617 42.5743398 -50.1031417 41.5673769 -49.03808594 40.55688477 C-45.22069869 37 -45.22069869 37 -43 37 C-43 36.34 -43 35.68 -43 35 C-42.34 35 -41.68 35 -41 35 C-41 34.34 -41 33.68 -41 33 C-39.30725716 31.43567213 -37.54430148 29.94671428 -35.75 28.5 C-34.77546875 27.7059375 -33.8009375 26.911875 -32.796875 26.09375 C-30.55105238 24.41251966 -28.5534197 23.11864101 -26 22 C-26 21.34 -26 20.68 -26 20 C-24.42578125 18.4140625 -24.42578125 18.4140625 -22.3125 16.625 C-21.22001953 15.69880859 -21.22001953 15.69880859 -20.10546875 14.75390625 C-19.41066406 14.17511719 -18.71585937 13.59632812 -18 13 C-17.05125 12.195625 -16.1025 11.39125 -15.125 10.5625 C-13 9 -13 9 -11 9 C-11 8.34 -11 7.68 -11 7 C-10.34 7 -9.68 7 -9 7 C-9 6.34 -9 5.68 -9 5 C-3.64285714 0 -3.64285714 0 0 0 Z " fill="#F60537" transform="translate(412,88)"/>
<path d="M0 0 C1.32 0 2.64 0 4 0 C2.64763423 2.93879484 1.10057341 5.29232911 -1 7.75 C-1.515625 8.36359375 -2.03125 8.9771875 -2.5625 9.609375 C-4 11 -4 11 -6 11 C-6.25523437 11.57741943 -6.51046875 12.15483887 -6.7734375 12.74975586 C-8.12787296 15.23459495 -9.66382735 16.96679676 -11.625 19.00390625 C-12.33140625 19.74447266 -13.0378125 20.48503906 -13.765625 21.24804688 C-14.50296875 22.01181641 -15.2403125 22.77558594 -16 23.5625 C-17.46027697 25.08277087 -18.91869244 26.60483255 -20.375 28.12890625 C-21.02210938 28.79994385 -21.66921875 29.47098145 -22.3359375 30.16235352 C-24.17416433 32.10164262 -24.17416433 32.10164262 -26 35 C-26.66 35 -27.32 35 -28 35 C-28 35.66 -28 36.32 -28 37 C-28.66 37 -29.32 37 -30 37 C-30.24621094 37.57492188 -30.49242187 38.14984375 -30.74609375 38.7421875 C-32.19793053 41.35639827 -33.90287549 43.06336208 -36.0625 45.125 C-38.91571933 47.77905 -38.91571933 47.77905 -41 51 C-41.66 51 -42.32 51 -43 51 C-43 51.66 -43 52.32 -43 53 C-43.66 53 -44.32 53 -45 53 C-45.2578125 53.57234375 -45.515625 54.1446875 -45.78125 54.734375 C-47.11365942 57.21128995 -48.65056118 59.1341166 -50.5 61.25 C-51.1084375 61.95640625 -51.716875 62.6628125 -52.34375 63.390625 C-54 65 -54 65 -56 65 C-56 65.66 -56 66.32 -56 67 C-56.66 67 -57.32 67 -58 67 C-58 67.66 -58 68.32 -58 69 C-58.66 69 -59.32 69 -60 69 C-60.2678833 69.59458008 -60.5357666 70.18916016 -60.81176758 70.80175781 C-62.01210673 73.02239757 -63.20702998 74.4243607 -65.01171875 76.171875 C-65.60533203 76.75453125 -66.19894531 77.3371875 -66.81054688 77.9375 C-67.42994141 78.535625 -68.04933594 79.13375 -68.6875 79.75 C-72.35042662 83.30669782 -75.93364991 86.86399132 -79.25341797 90.74682617 C-82.88238713 94.91859102 -86.70645957 98.85126725 -90.62109375 102.75390625 C-91.32468521 103.45845444 -92.02827667 104.16300262 -92.75318909 104.88890076 C-94.23014648 106.36653367 -95.70834742 107.84292457 -97.18774414 109.31811523 C-99.43165085 111.55666481 -101.67016704 113.80050473 -103.90820312 116.04492188 C-105.35384618 117.48990404 -106.79979945 118.93457592 -108.24609375 120.37890625 C-108.9046788 121.03951553 -109.56326385 121.70012482 -110.24180603 122.38075256 C-114.09939345 126.21926549 -118.06223532 129.8745313 -122.19682312 133.41357422 C-125.63741135 136.44058612 -128.77642468 139.77347433 -131.94921875 143.07617188 C-133.2639718 144.41980193 -134.62816888 145.71469976 -136 147 C-136.66 147 -137.32 147 -138 147 C-138 147.66 -138 148.32 -138 149 C-138.66 149 -139.32 149 -140 149 C-140 149.66 -140 150.32 -140 151 C-141.46875 152.4453125 -141.46875 152.4453125 -143.5 154.125 C-146.46677361 156.64257902 -149.27574249 159.22168976 -152 162 C-155.23466024 165.28540001 -158.60862049 168.32652542 -162.109375 171.32421875 C-163.9527856 172.95815087 -165.66516162 174.66541022 -167.375 176.4375 C-170 179 -170 179 -172 179 C-172 179.66 -172 180.32 -172 181 C-173.46875 182.4453125 -173.46875 182.4453125 -175.5 184.125 C-178.46677361 186.64257902 -181.27574249 189.22168976 -184 192 C-194.26503759 202.3862782 -194.26503759 202.3862782 -200 205 C-200 205.66 -200 206.32 -200 207 C-201.328125 208.33984375 -201.328125 208.33984375 -203.25 209.9375 C-206.9097428 213.04568582 -210.47322813 216.24255333 -214 219.5 C-218.0156661 223.19664409 -222.05391257 226.86040147 -226.18359375 230.4296875 C-227.45529868 231.52909692 -228.71759474 232.63944086 -229.97265625 233.7578125 C-230.60042969 234.31210937 -231.22820312 234.86640625 -231.875 235.4375 C-232.70644531 236.17806641 -232.70644531 236.17806641 -233.5546875 236.93359375 C-235 238 -235 238 -237 238 C-237 238.66 -237 239.32 -237 240 C-238.4609375 241.5078125 -238.4609375 241.5078125 -240.375 243.125 C-241.00148438 243.66382813 -241.62796875 244.20265625 -242.2734375 244.7578125 C-244 246 -244 246 -246 246 C-246 246.66 -246 247.32 -246 248 C-251.47619048 253 -251.47619048 253 -254 253 C-254 253.66 -254 254.32 -254 255 C-254.66 255 -255.32 255 -256 255 C-256 255.66 -256 256.32 -256 257 C-261.35714286 262 -261.35714286 262 -265 262 C-263.68120833 259.13005812 -262.22904698 256.91254253 -260.125 254.5625 C-259.196875 253.52222656 -259.196875 253.52222656 -258.25 252.4609375 C-256.5708454 250.62436216 -254.88399221 248.79699416 -253.1875 246.9765625 C-252.16646772 245.88039361 -251.14564 244.78403415 -250.125 243.6875 C-249.33984009 242.84421143 -249.33984009 242.84421143 -248.53881836 241.98388672 C-245.45419385 238.64711437 -242.52066316 235.24368212 -239.6875 231.6875 C-235.08473671 225.93617286 -230.04788078 220.62862131 -224.96362305 215.30541992 C-224.33625244 214.64646729 -223.70888184 213.98751465 -223.0625 213.30859375 C-222.49660156 212.71876709 -221.93070313 212.12894043 -221.34765625 211.52124023 C-219.90435404 210.0240037 -219.90435404 210.0240037 -219 208 C-218.34 208 -217.68 208 -217 208 C-217 207.34 -217 206.68 -217 206 C-216.34 206 -215.68 206 -215 206 C-214.7321167 205.40993164 -214.4642334 204.81986328 -214.18823242 204.21191406 C-212.98826517 201.97815542 -211.73387987 200.43726575 -209.98828125 198.609375 C-209.39909912 197.98667725 -208.80991699 197.36397949 -208.20288086 196.72241211 C-207.57905518 196.07151611 -206.95522949 195.42062012 -206.3125 194.75 C-205.02774342 193.39278075 -203.74387729 192.03471799 -202.4609375 190.67578125 C-201.85217773 190.03205566 -201.24341797 189.38833008 -200.61621094 188.72509766 C-198.84404325 186.8335362 -197.12574268 184.90425988 -195.4375 182.9375 C-190.15103618 176.78821955 -184.53419326 170.92533173 -179 165 C-179 168 -179 168 -180 171 C-180.66 171 -181.32 171 -182 171 C-182.33 171.99 -182.66 172.98 -183 174 C-183.99 174 -184.98 174 -186 174 C-185.938125 175.093125 -185.87625 176.18625 -185.8125 177.3125 C-186 181 -186 181 -187.5 182.9375 C-187.995 183.288125 -188.49 183.63875 -189 184 C-189.33 183.34 -189.66 182.68 -190 182 C-190.66 182 -191.32 182 -192 182 C-192.66 183.65 -193.32 185.3 -194 187 C-194.66 187 -195.32 187 -196 187 C-196.33 187.99 -196.66 188.98 -197 190 C-197.64195312 190.31324219 -198.28390625 190.62648438 -198.9453125 190.94921875 C-201.48323976 192.24713212 -201.83048961 193.21117174 -202.875 195.8125 C-204.87719406 200.15718197 -207.04939845 202.31022873 -211 205 C-211.99 205 -212.98 205 -214 205 C-213.835 205.721875 -213.67 206.44375 -213.5 207.1875 C-213.665 208.115625 -213.83 209.04375 -214 210 C-215.67578125 211.1640625 -215.67578125 211.1640625 -217.8125 212.3125 C-221.25849792 214.21542274 -222.65667414 215.59050444 -224 219.3125 C-224.33 220.529375 -224.66 221.74625 -225 223 C-224.34 223 -223.68 223 -223 223 C-223 222.34 -223 221.68 -223 221 C-221.35 220.67 -219.7 220.34 -218 220 C-218 219.01 -218 218.02 -218 217 C-216.68 217 -215.36 217 -214 217 C-213.34 214.69 -212.68 212.38 -212 210 C-211.01 210.33 -210.02 210.66 -209 211 C-209 210.01 -209 209.02 -209 208 C-208.01 208 -207.02 208 -206 208 C-206 207.01 -206 206.02 -206 205 C-204.35 205 -202.7 205 -201 205 C-201 204.34 -201 203.68 -201 203 C-200.34 203 -199.68 203 -199 203 C-199 201.35 -199 199.7 -199 198 C-198.04287109 197.72736328 -198.04287109 197.72736328 -197.06640625 197.44921875 C-195.82697266 197.07216797 -195.82697266 197.07216797 -194.5625 196.6875 C-193.73878906 196.44386719 -192.91507812 196.20023438 -192.06640625 195.94921875 C-191.38449219 195.63597656 -190.70257813 195.32273437 -190 195 C-189.67 194.01 -189.34 193.02 -189 192 C-188.0925 191.401875 -187.185 190.80375 -186.25 190.1875 C-183.55189958 188.37147087 -182.18785246 187.20115267 -180.25 184.75 C-179.5075 183.8425 -178.765 182.935 -178 182 C-177.34 182 -176.68 182 -176 182 C-175.67 180.68 -175.34 179.36 -175 178 C-174.01 178 -173.02 178 -172 178 C-171.87625 177.38125 -171.7525 176.7625 -171.625 176.125 C-171 174 -171 174 -169 172 C-167.68 172 -166.36 172 -165 172 C-164.67 170.35 -164.34 168.7 -164 167 C-163.34 167 -162.68 167 -162 167 C-162 166.34 -162 165.68 -162 165 C-160.68 165 -159.36 165 -158 165 C-158 163.68 -158 162.36 -158 161 C-157.01 161 -156.02 161 -155 161 C-155 160.01 -155 159.02 -155 158 C-153.68 157.67 -152.36 157.34 -151 157 C-151 156.01 -151 155.02 -151 154 C-150.34 154 -149.68 154 -149 154 C-149 153.34 -149 152.68 -149 152 C-148.34 152 -147.68 152 -147 152 C-147 151.34 -147 150.68 -147 150 C-146.01 150 -145.02 150 -144 150 C-143.67 149.01 -143.34 148.02 -143 147 C-142.34 147 -141.68 147 -141 147 C-140.67 146.34 -140.34 145.68 -140 145 C-139.34 145 -138.68 145 -138 145 C-137.938125 144.401875 -137.87625 143.80375 -137.8125 143.1875 C-136.65729457 140.07733153 -134.93122813 139.39582292 -132 138 C-131.01 138 -130.02 138 -129 138 C-128.9175 137.38125 -128.835 136.7625 -128.75 136.125 C-128 134 -128 134 -126 132.9375 C-125.34 132.628125 -124.68 132.31875 -124 132 C-123.67 131.01 -123.34 130.02 -123 129 C-122.01 129 -121.02 129 -120 129 C-120 128.34 -120 127.68 -120 127 C-119.34 127 -118.68 127 -118 127 C-117.7525 126.195625 -117.505 125.39125 -117.25 124.5625 C-116 122 -116 122 -113.875 121.1875 C-113.25625 121.125625 -112.6375 121.06375 -112 121 C-112 120.01 -112 119.02 -112 118 C-111.236875 117.773125 -110.47375 117.54625 -109.6875 117.3125 C-106.4344309 115.72379184 -105.77429048 114.06468356 -104 111 C-103.01 111 -102.02 111 -101 111 C-101 109.68 -101 108.36 -101 107 C-98.525 106.505 -98.525 106.505 -96 106 C-96 105.01 -96 104.02 -96 103 C-95.34 103 -94.68 103 -94 103 C-93.67 101.35 -93.34 99.7 -93 98 C-92.01 97.67 -91.02 97.34 -90 97 C-89.67 96.34 -89.34 95.68 -89 95 C-88.34 95 -87.68 95 -87 95 C-87 94.34 -87 93.68 -87 93 C-86.34 93 -85.68 93 -85 93 C-85 92.01 -85 91.02 -85 90 C-83.68 90 -82.36 90 -81 90 C-81 88.68 -81 87.36 -81 86 C-80.38125 85.9175 -79.7625 85.835 -79.125 85.75 C-76.32494581 84.76174558 -76.25886068 83.59640015 -75 81 C-73.66666667 80.33333333 -72.33333333 79.66666667 -71 79 C-69.77472052 77.04978917 -69.77472052 77.04978917 -69 75 C-68.67 74.34 -68.34 73.68 -68 73 C-66.68 73 -65.36 73 -64 73 C-63.814375 72.13375 -63.814375 72.13375 -63.625 71.25 C-62.2471608 66.28977887 -59.83253668 63.45863066 -56 60 C-55.01 59.67 -54.02 59.34 -53 59 C-52.814375 58.13375 -52.814375 58.13375 -52.625 57.25 C-51.68130309 53.85269113 -49.62860464 52.2618226 -47 50 C-44.6875 49.1875 -44.6875 49.1875 -43 49 C-42.95875 48.278125 -42.9175 47.55625 -42.875 46.8125 C-41.62604853 42.79801312 -39.4094617 41.33982666 -36 39 C-34.68 39 -33.36 39 -32 39 C-32.12375 38.2575 -32.2475 37.515 -32.375 36.75 C-32 34 -32 34 -29.3125 31.9375 C-28.219375 31.298125 -27.12625 30.65875 -26 30 C-22.03386868 27.22222576 -22.03386868 27.22222576 -20 23 C-19.34 23 -18.68 23 -18 23 C-18 21.68 -18 20.36 -18 19 C-17.01 19 -16.02 19 -15 19 C-15 18.34 -15 17.68 -15 17 C-14.01 16.505 -14.01 16.505 -13 16 C-13 15.34 -13 14.68 -13 14 C-11.68 14 -10.36 14 -9 14 C-8.9175 13.2575 -8.835 12.515 -8.75 11.75 C-7.84636905 8.43668651 -6.66817101 7.11884168 -4 5 C-3.01 5 -2.02 5 -1 5 C-0.67 3.35 -0.34 1.7 0 0 Z " fill="#B61043" transform="translate(353,150)"/>
<path d="M0 0 C-1.35108966 2.96325944 -2.88706648 5.20785165 -5.0625 7.625 C-5.67609375 8.31207031 -6.2896875 8.99914062 -6.921875 9.70703125 C-8.41128297 11.35041937 -9.90088921 12.9936278 -11.390625 14.63671875 C-12.18984375 15.51972656 -12.9890625 16.40273437 -13.8125 17.3125 C-14.56144531 18.13363281 -15.31039062 18.95476562 -16.08203125 19.80078125 C-18.12519492 22.04822519 -18.12519492 22.04822519 -20 25 C-20.66 25 -21.32 25 -22 25 C-22.24621094 25.56460938 -22.49242187 26.12921875 -22.74609375 26.7109375 C-24.21854254 29.39895928 -25.98304279 31.37317156 -28.0625 33.625 C-28.85914063 34.49511719 -29.65578125 35.36523438 -30.4765625 36.26171875 C-31.72566406 37.61716797 -31.72566406 37.61716797 -33 39 C-34.64890226 40.80970852 -36.29486747 42.62209867 -37.9375 44.4375 C-38.66839844 45.24058594 -39.39929688 46.04367188 -40.15234375 46.87109375 C-42.13327581 49.06292965 -42.13327581 49.06292965 -44 52 C-44.66 52 -45.32 52 -46 52 C-46 52.66 -46 53.32 -46 54 C-46.66 54 -47.32 54 -48 54 C-48.2475 54.598125 -48.495 55.19625 -48.75 55.8125 C-50.16370012 58.28647521 -51.65055383 59.43370255 -54 61 C-54 59.02 -54 57.04 -54 55 C-58.02604241 54.56337964 -58.02604241 54.56337964 -60.40234375 57.08203125 C-61.23894531 57.98308594 -62.07554687 58.88414062 -62.9375 59.8125 C-66.05777911 63.15462276 -68.80212561 66.07962408 -73 68 C-75.3125 67.6875 -75.3125 67.6875 -77 67 C-75.71451591 65.66070495 -74.42141845 64.32871357 -73.125 63 C-72.40570313 62.2575 -71.68640625 61.515 -70.9453125 60.75 C-69 59 -69 59 -67 59 C-67 58.34 -67 57.68 -67 57 C-66.34 57 -65.68 57 -65 57 C-65 56.34 -65 55.68 -65 55 C-63.671875 53.66015625 -63.671875 53.66015625 -61.75 52.0625 C-59.06723221 49.79320538 -56.43344885 47.49329006 -53.8671875 45.09375 C-53.33125977 44.59351318 -52.79533203 44.09327637 -52.24316406 43.57788086 C-51.17155617 42.5743398 -50.1031417 41.5673769 -49.03808594 40.55688477 C-45.22069869 37 -45.22069869 37 -43 37 C-43 36.34 -43 35.68 -43 35 C-42.34 35 -41.68 35 -41 35 C-41 34.34 -41 33.68 -41 33 C-39.30725716 31.43567213 -37.54430148 29.94671428 -35.75 28.5 C-34.28820312 27.30890625 -34.28820312 27.30890625 -32.796875 26.09375 C-30.55105238 24.41251966 -28.5534197 23.11864101 -26 22 C-26 21.34 -26 20.68 -26 20 C-24.42578125 18.4140625 -24.42578125 18.4140625 -22.3125 16.625 C-21.58417969 16.00753906 -20.85585938 15.39007813 -20.10546875 14.75390625 C-19.41066406 14.17511719 -18.71585937 13.59632812 -18 13 C-17.05125 12.195625 -16.1025 11.39125 -15.125 10.5625 C-13 9 -13 9 -11 9 C-11 8.34 -11 7.68 -11 7 C-10.34 7 -9.68 7 -9 7 C-9 6.34 -9 5.68 -9 5 C-3.64285714 0 -3.64285714 0 0 0 Z " fill="#E90A3C" transform="translate(412,88)"/>
<path d="M0 0 C0.495 0.99 0.495 0.99 1 2 C-2.05533858 6.62665557 -4.1413689 9.25923374 -9 12 C-10.35827971 13.64639965 -11.69254251 15.31295807 -13 17 C-16.51724138 20 -16.51724138 20 -19 20 C-19.268125 20.639375 -19.53625 21.27875 -19.8125 21.9375 C-21 24 -21 24 -24 25 C-24.28875 25.61875 -24.5775 26.2375 -24.875 26.875 C-26.37790574 29.71382195 -28.24434785 30.34660871 -31 32 C-35.98221926 36.31649037 -35.98221926 36.31649037 -39 42 C-41.33514533 44.48109191 -43.79156197 46.80200187 -46.26171875 49.1484375 C-47.46248047 50.31246094 -47.46248047 50.31246094 -48.6875 51.5 C-49.45449219 52.2321875 -50.22148437 52.964375 -51.01171875 53.71875 C-53.06419717 56.07365648 -54.02957288 58.05239249 -55 61 C-56.32 61 -57.64 61 -59 61 C-59.33 61.99 -59.66 62.98 -60 64 C-60.969375 64.639375 -61.93875 65.27875 -62.9375 65.9375 C-65.85524185 67.90250982 -66.85114989 68.7832197 -68 72 C-68.66 72 -69.32 72 -70 72 C-70 72.66 -70 73.32 -70 74 C-70.99 74.66 -71.98 75.32 -73 76 C-73.33 76.99 -73.66 77.98 -74 79 C-75.9375 81.1875 -75.9375 81.1875 -78 83 C-78.66 83 -79.32 83 -80 83 C-80.35771484 83.83337891 -80.35771484 83.83337891 -80.72265625 84.68359375 C-82.29259847 87.53061436 -84.23920449 89.66928174 -86.4375 92.0625 C-87.61119141 93.34833984 -87.61119141 93.34833984 -88.80859375 94.66015625 C-89.53175781 95.43230469 -90.25492188 96.20445312 -91 97 C-91.52722656 97.59683594 -92.05445313 98.19367188 -92.59765625 98.80859375 C-94 100 -94 100 -97 100 C-97.28875 100.78375 -97.5775 101.5675 -97.875 102.375 C-99 105 -99 105 -101 107 C-101.99 107 -102.98 107 -104 107 C-104 106.34 -104 105.68 -104 105 C-103.34 105 -102.68 105 -102 105 C-102 104.34 -102 103.68 -102 103 C-101.34 103 -100.68 103 -100 103 C-100 102.34 -100 101.68 -100 101 C-99.34 101 -98.68 101 -98 101 C-97.75378906 100.42507813 -97.50757813 99.85015625 -97.25390625 99.2578125 C-95.80206947 96.64360173 -94.09712451 94.93663792 -91.9375 92.875 C-89.08428067 90.22095 -89.08428067 90.22095 -87 87 C-86.34 87 -85.68 87 -85 87 C-84.76667969 86.43796875 -84.53335938 85.8759375 -84.29296875 85.296875 C-82.68062924 82.43265858 -80.6806438 80.52747979 -78.3125 78.25 C-75.31241391 75.31401831 -72.39678187 72.39371046 -69.6875 69.1875 C-65.83520644 64.66685672 -61.59513297 60.54336677 -57.35424805 56.39135742 C-54.29802352 53.48734215 -54.29802352 53.48734215 -52 50 C-51.34 50 -50.68 50 -50 50 C-49.67805664 49.19127441 -49.67805664 49.19127441 -49.34960938 48.36621094 C-47.51478949 45.14930168 -45.01414382 42.72860745 -42.40625 40.140625 C-41.85892212 39.59138367 -41.31159424 39.04214233 -40.74768066 38.47625732 C-39.5935222 37.32074141 -38.43684833 36.16773315 -37.27783203 35.01708984 C-35.49926054 33.249265 -33.73165237 31.4709787 -31.96484375 29.69140625 C-30.84178692 28.56967029 -29.71811024 27.44855449 -28.59375 26.328125 C-28.0635022 25.79382874 -27.53325439 25.25953247 -26.98693848 24.70904541 C-23.22993854 21 -23.22993854 21 -21 21 C-21 20.34 -21 19.68 -21 19 C-19.4609375 17.484375 -19.4609375 17.484375 -17.375 15.75 C-14.65952241 13.45339927 -12.08737736 11.12849225 -9.625 8.5625 C-7 6 -7 6 -5 6 C-5 5.34 -5 4.68 -5 4 C-4.34 4 -3.68 4 -3 4 C-3 3.34 -3 2.68 -3 2 C-2.01 1.34 -1.02 0.68 0 0 Z " fill="#B1153D" transform="translate(279,208)"/>
<path d="M0 0 C-1.35108966 2.96325944 -2.88706648 5.20785165 -5.0625 7.625 C-5.67609375 8.31207031 -6.2896875 8.99914062 -6.921875 9.70703125 C-8.41128297 11.35041937 -9.90088921 12.9936278 -11.390625 14.63671875 C-12.58945312 15.96123047 -12.58945312 15.96123047 -13.8125 17.3125 C-14.56144531 18.13363281 -15.31039062 18.95476562 -16.08203125 19.80078125 C-18.12519492 22.04822519 -18.12519492 22.04822519 -20 25 C-20.66 25 -21.32 25 -22 25 C-22.24234375 25.56074219 -22.4846875 26.12148437 -22.734375 26.69921875 C-24.2535101 29.46085633 -26.10895257 31.50031442 -28.25 33.8125 C-31.06029729 36.87209786 -33.82957658 39.94252937 -36.5 43.125 C-37.325 44.07375 -38.15 45.0225 -39 46 C-39.33 46 -39.66 46 -40 46 C-40.4375 43.3125 -40.4375 43.3125 -40 40 C-38.3559142 38.4465331 -36.66500663 37.33645459 -34.7265625 36.17578125 C-32.69642739 34.95143323 -32.69642739 34.95143323 -31 32 C-30.34 32 -29.68 32 -29 32 C-29 30.68 -29 29.36 -29 28 C-32.68407274 29.04899567 -32.68407274 29.04899567 -35 31.875 C-35.33 32.57625 -35.66 33.2775 -36 34 C-38.3853433 36.12746835 -40.72963209 37.84453845 -43.5 39.4375 C-46.43930264 41.27456415 -48.62516796 43.48946327 -51 46 C-51.66 45.67 -52.32 45.34 -53 45 C-51.71451591 43.66070495 -50.42141845 42.32871357 -49.125 41 C-48.40570313 40.2575 -47.68640625 39.515 -46.9453125 38.75 C-45 37 -45 37 -43 37 C-43 36.34 -43 35.68 -43 35 C-42.34 35 -41.68 35 -41 35 C-41 34.34 -41 33.68 -41 33 C-39.30725716 31.43567213 -37.54430148 29.94671428 -35.75 28.5 C-34.77546875 27.7059375 -33.8009375 26.911875 -32.796875 26.09375 C-30.55105238 24.41251966 -28.5534197 23.11864101 -26 22 C-26 21.34 -26 20.68 -26 20 C-24.42578125 18.4140625 -24.42578125 18.4140625 -22.3125 16.625 C-21.22001953 15.69880859 -21.22001953 15.69880859 -20.10546875 14.75390625 C-19.41066406 14.17511719 -18.71585937 13.59632812 -18 13 C-17.05125 12.195625 -16.1025 11.39125 -15.125 10.5625 C-13 9 -13 9 -11 9 C-11 8.34 -11 7.68 -11 7 C-10.34 7 -9.68 7 -9 7 C-9 6.34 -9 5.68 -9 5 C-3.64285714 0 -3.64285714 0 0 0 Z " fill="#B5113D" transform="translate(412,88)"/>
<path d="M0 0 C0.66 0 1.32 0 2 0 C2 1.65 2 3.3 2 5 C0.02 5.99 0.02 5.99 -2 7 C-2 7.66 -2 8.32 -2 9 C-2.66 9 -3.32 9 -4 9 C-4 9.66 -4 10.32 -4 11 C-5.46875 12.4453125 -5.46875 12.4453125 -7.5 14.125 C-11.3499234 17.37893881 -14.86064335 20.84772718 -18.3359375 24.49609375 C-20 26 -20 26 -22 26 C-22 24.35 -22 22.7 -22 21 C-21.01 21 -20.02 21 -19 21 C-19 20.01 -19 19.02 -19 18 C-17.68 17.67 -16.36 17.34 -15 17 C-15 16.01 -15 15.02 -15 14 C-14.34 14 -13.68 14 -13 14 C-13 13.34 -13 12.68 -13 12 C-12.34 12 -11.68 12 -11 12 C-11 11.34 -11 10.68 -11 10 C-10.01 10 -9.02 10 -8 10 C-7.67 9.01 -7.34 8.02 -7 7 C-6.34 7 -5.68 7 -5 7 C-4.67 6.34 -4.34 5.68 -4 5 C-3.34 5 -2.68 5 -2 5 C-1.855625 4.360625 -1.71125 3.72125 -1.5625 3.0625 C-1 1 -1 1 0 0 Z " fill="#C20D42" transform="translate(217,290)"/>
<path d="M0 0 C0.66 0 1.32 0 2 0 C1.67 0.5775 1.34 1.155 1 1.75 C-0.27075898 4.19883862 -0.27075898 4.19883862 0 8 C-0.66 8 -1.32 8 -2 8 C-2 8.66 -2 9.32 -2 10 C-2.66 10 -3.32 10 -4 10 C-4.2578125 10.57234375 -4.515625 11.1446875 -4.78125 11.734375 C-6.11365942 14.21128995 -7.65056118 16.1341166 -9.5 18.25 C-10.1084375 18.95640625 -10.716875 19.6628125 -11.34375 20.390625 C-13 22 -13 22 -15 22 C-15 22.66 -15 23.32 -15 24 C-15.66 24 -16.32 24 -17 24 C-17 24.66 -17 25.32 -17 26 C-17.66 26 -18.32 26 -19 26 C-19.66 27.32 -20.32 28.64 -21 30 C-21.66 29.67 -22.32 29.34 -23 29 C-22.690625 28.401875 -22.38125 27.80375 -22.0625 27.1875 C-20.89790296 24.91043228 -20.89790296 24.91043228 -20 22 C-15.68181818 17.22727273 -15.68181818 17.22727273 -12 16 C-11.87625 15.4225 -11.7525 14.845 -11.625 14.25 C-10.68130309 10.85269113 -8.62860464 9.2618226 -6 7 C-3.6875 6.1875 -3.6875 6.1875 -2 6 C-1.855625 5.195625 -1.71125 4.39125 -1.5625 3.5625 C-1 1 -1 1 0 0 Z " fill="#C10E41" transform="translate(312,193)"/>
<path d="M0 0 C0 3 0 3 -1 5 C0.98 4.34 2.96 3.68 5 3 C4.01 4.485 4.01 4.485 3 6 C2.34 6 1.68 6 1 6 C1 6.66 1 7.32 1 8 C-4.47619048 13 -4.47619048 13 -7 13 C-7 13.66 -7 14.32 -7 15 C-7.66 15 -8.32 15 -9 15 C-9 15.66 -9 16.32 -9 17 C-14.35714286 22 -14.35714286 22 -18 22 C-16.64891034 19.03674056 -15.11293352 16.79214835 -12.9375 14.375 C-12.32648438 13.69179688 -11.71546875 13.00859375 -11.0859375 12.3046875 C-10.39757812 11.54414063 -9.70921875 10.78359375 -9 10 C-8.18789062 9.09507812 -7.37578125 8.19015625 -6.5390625 7.2578125 C-4.36330206 4.83496254 -2.18333356 2.41602444 0 0 Z " fill="#9D133D" transform="translate(106,390)"/>
<path d="M0 0 C0 0.99 0 1.98 0 3 C-1 4 -2 5 -3 6 C-3.16435547 6.8971875 -3.16435547 6.8971875 -3.33203125 7.8125 C-4.26222548 10.8587501 -5.98626628 12.34748903 -8.25 14.5625 C-9.01828125 15.32691406 -9.7865625 16.09132812 -10.578125 16.87890625 C-12.9796827 18.98220598 -15.1123321 20.6343354 -18 22 C-20.3125 21.6875 -20.3125 21.6875 -22 21 C-20.71451591 19.66070495 -19.42141845 18.32871357 -18.125 17 C-17.40570313 16.2575 -16.68640625 15.515 -15.9453125 14.75 C-14 13 -14 13 -12 13 C-12 12.34 -12 11.68 -12 11 C-11.34 11 -10.68 11 -10 11 C-10 10.34 -10 9.68 -10 9 C-8.3203125 7.34375 -8.3203125 7.34375 -6.125 5.5 C-4.00964496 3.71066742 -1.95980876 1.95980876 0 0 Z " fill="#BD103C" transform="translate(357,134)"/>
<path d="M0 0 C0 3 0 3 -1 6 C-1.66 6 -2.32 6 -3 6 C-3.33 6.99 -3.66 7.98 -4 9 C-4.99 9 -5.98 9 -7 9 C-6.938125 10.093125 -6.87625 11.18625 -6.8125 12.3125 C-7 16 -7 16 -8.5 17.9375 C-8.995 18.288125 -9.49 18.63875 -10 19 C-10.33 18.34 -10.66 17.68 -11 17 C-11.66 17 -12.32 17 -13 17 C-13.99 19.475 -13.99 19.475 -15 22 C-15.66 22 -16.32 22 -17 22 C-17.33 22.99 -17.66 23.98 -18 25 C-18.66 24.67 -19.32 24.34 -20 24 C-18.64827153 19.91620659 -16.93063758 17.62316481 -13.8125 14.6875 C-10.1416569 11.14691262 -6.72238625 7.50492008 -3.41015625 3.62890625 C-2.32370902 2.37392427 -1.17374345 1.17374345 0 0 Z " fill="#D30C49" transform="translate(174,315)"/>
<path d="M0 0 C0 2.62113708 -0.31292445 4.50935112 -1 7 C-0.34 7 0.32 7 1 7 C1 7.66 1 8.32 1 9 C0.34 9 -0.32 9 -1 9 C-1.33 9.66 -1.66 10.32 -2 11 C-2 10.34 -2 9.68 -2 9 C-2.66 9 -3.32 9 -4 9 C-4.33 10.98 -4.66 12.96 -5 15 C-6.65 14.67 -8.3 14.34 -10 14 C-10.28333992 10.94206733 -10.26766276 9.41359396 -8.57421875 6.796875 C-7.95160156 6.12140625 -7.32898438 5.4459375 -6.6875 4.75 C-6.07261719 4.06421875 -5.45773438 3.3784375 -4.82421875 2.671875 C-3 1 -3 1 0 0 Z " fill="#CE0D37" transform="translate(129,366)"/>
<path d="M0 0 C0 4 0 4 -2.25 6.5625 C-8.38461538 12 -8.38461538 12 -11 12 C-11 13.32 -11 14.64 -11 16 C-11.99 16 -12.98 16 -14 16 C-14 16.66 -14 17.32 -14 18 C-14.66 18 -15.32 18 -16 18 C-16.296875 15.78515625 -16.296875 15.78515625 -16 13 C-13.953125 10.68359375 -13.953125 10.68359375 -11.25 8.4375 C-7.40715368 5.205484 -7.40715368 5.205484 -3.796875 1.72265625 C-2 0 -2 0 0 0 Z " fill="#F00535" transform="translate(383,116)"/>
<path d="M0 0 C0.66 0.33 1.32 0.66 2 1 C1.67 1.556875 1.34 2.11375 1 2.6875 C-0.17980319 4.97233361 -0.17980319 4.97233361 0.0625 7.5625 C0 10 0 10 -1.25 11.6875 C-4.25036248 13.93777186 -6.19983197 15 -10 15 C-8.67494706 8.5403669 -4.40590065 4.61082626 0 0 Z " fill="#C9113D" transform="translate(115,380)"/>
<path d="M0 0 C0.66 0.33 1.32 0.66 2 1 C1.13375 1.81404297 1.13375 1.81404297 0.25 2.64453125 C-0.4925 3.35996094 -1.235 4.07539063 -2 4.8125 C-2.7425 5.52019531 -3.485 6.22789062 -4.25 6.95703125 C-6.32527608 8.93139369 -6.32527608 8.93139369 -6 12 C-10.22222222 15 -10.22222222 15 -13 15 C-13.226875 15.598125 -13.45375 16.19625 -13.6875 16.8125 C-15.35517441 19.59195736 -17.20687116 20.40392638 -20 22 C-21.36984198 23.29579647 -22.7151049 24.61992749 -24 26 C-24.66 25.67 -25.32 25.34 -26 25 C-24.54782324 23.49403892 -23.08807139 21.99537896 -21.625 20.5 C-20.81289063 19.6646875 -20.00078125 18.829375 -19.1640625 17.96875 C-17 16 -17 16 -15 16 C-15 15.34 -15 14.68 -15 14 C-14.34 14 -13.68 14 -13 14 C-13 13.34 -13 12.68 -13 12 C-11.42578125 10.44921875 -11.42578125 10.44921875 -9.3125 8.6875 C-6.04699036 5.91500692 -2.98084015 3.07399141 0 0 Z " fill="#A00F37" transform="translate(332,157)"/>
<path d="M0 0 C0.33 0.66 0.66 1.32 1 2 C0.04882866 3.1725131 -0.91117009 4.33787015 -1.875 5.5 C-2.67550781 6.47453125 -2.67550781 6.47453125 -3.4921875 7.46875 C-3.98976563 7.9740625 -4.48734375 8.479375 -5 9 C-5.66 9 -6.32 9 -7 9 C-7.33644531 9.85851562 -7.33644531 9.85851562 -7.6796875 10.734375 C-9.3780159 13.64866633 -11.45880069 15.19907745 -14.125 17.25 C-15.03507812 17.95640625 -15.94515625 18.6628125 -16.8828125 19.390625 C-17.58148438 19.92171875 -18.28015625 20.4528125 -19 21 C-19.66 20.67 -20.32 20.34 -21 20 C-18.88094537 17.82722286 -16.75527122 15.66173092 -14.625 13.5 C-14.02171875 12.87996094 -13.4184375 12.25992188 -12.796875 11.62109375 C-12.21679688 11.03457031 -11.63671875 10.44804687 -11.0390625 9.84375 C-10.50490723 9.29912109 -9.97075195 8.75449219 -9.42041016 8.19335938 C-8 7 -8 7 -6 7 C-6 6.34 -6 5.68 -6 5 C-5.34 5 -4.68 5 -4 5 C-4 4.34 -4 3.68 -4 3 C-3.34 3 -2.68 3 -2 3 C-2 2.34 -2 1.68 -2 1 C-1.34 0.67 -0.68 0.34 0 0 Z " fill="#BB0F47" transform="translate(301,187)"/>
<path d="M0 0 C0.66 0.33 1.32 0.66 2 1 C1.36191406 1.61488281 0.72382813 2.22976562 0.06640625 2.86328125 C-0.75988281 3.67152344 -1.58617187 4.47976562 -2.4375 5.3125 C-3.26121094 6.11300781 -4.08492187 6.91351563 -4.93359375 7.73828125 C-7.19403477 9.90470808 -7.19403477 9.90470808 -8 13 C-11.68987155 17.01544845 -15.82819346 20.5014533 -20 24 C-20.33 23.01 -20.66 22.02 -21 21 C-20.34 21 -19.68 21 -19 21 C-18.62609131 20.13713379 -18.62609131 20.13713379 -18.24462891 19.25683594 C-16.82126077 16.67589928 -15.18451214 14.95787763 -13.0859375 12.890625 C-12.32539063 12.13652344 -11.56484375 11.38242188 -10.78125 10.60546875 C-9.9871875 9.82816406 -9.193125 9.05085937 -8.375 8.25 C-7.57320312 7.45722656 -6.77140625 6.66445312 -5.9453125 5.84765625 C-3.96797154 3.89385507 -1.98611091 1.94487897 0 0 Z " fill="#AA1947" transform="translate(248,237)"/>
<path d="M0 0 C0.66 0.33 1.32 0.66 2 1 C2 1.99 2 2.98 2 4 C3.65 4.33 5.3 4.66 7 5 C4.14788651 8.01056424 1.7563292 10.25599001 -2 12 C-2.33 12.66 -2.66 13.32 -3 14 C-3.625 10.625 -3.625 10.625 -4 7 C-3.34 6.34 -2.68 5.68 -2 5 C-2 4.01 -2 3.02 -2 2 C-1.34 1.34 -0.68 0.68 0 0 Z " fill="#C8124E" transform="translate(118,376)"/>
<path d="M0 0 C-1.42089299 3.15282724 -3.15031851 5.53777964 -5.4375 8.125 C-6.03433594 8.80820313 -6.63117188 9.49140625 -7.24609375 10.1953125 C-9 12 -9 12 -12 14 C-12.33 12.35 -12.66 10.7 -13 9 C-12.34 9 -11.68 9 -11 9 C-11 8.34 -11 7.68 -11 7 C-10.34 7 -9.68 7 -9 7 C-9 6.34 -9 5.68 -9 5 C-3.64285714 0 -3.64285714 0 0 0 Z " fill="#701F4A" transform="translate(412,88)"/>
<path d="M0 0 C0.66 0 1.32 0 2 0 C0.67879172 2.93230193 -0.74638197 4.98664899 -3.0390625 7.234375 C-3.90917969 8.09482422 -3.90917969 8.09482422 -4.796875 8.97265625 C-5.40015625 9.55917969 -6.0034375 10.14570313 -6.625 10.75 C-7.23601562 11.35199219 -7.84703125 11.95398438 -8.4765625 12.57421875 C-9.97988624 14.05405305 -11.48934856 15.52764676 -13 17 C-13.66 16.67 -14.32 16.34 -15 16 C-14.67 14.68 -14.34 13.36 -14 12 C-12.35 11.67 -10.7 11.34 -9 11 C-8.9175 10.38125 -8.835 9.7625 -8.75 9.125 C-8 7 -8 7 -6 5.9375 C-5.34 5.628125 -4.68 5.31875 -4 5 C-3.67 4.01 -3.34 3.02 -3 2 C-2.01 2 -1.02 2 0 2 C0 1.34 0 0.68 0 0 Z " fill="#B21337" transform="translate(233,277)"/>
<path d="M0 0 C0.65356445 1.81152344 0.65356445 1.81152344 1 4 C-0.87534998 6.30170141 -2.6694721 8.23019016 -4.8125 10.25 C-5.37259766 10.80429687 -5.93269531 11.35859375 -6.50976562 11.9296875 C-10.70539563 16 -10.70539563 16 -13 16 C-12.8125 13.625 -12.8125 13.625 -12 11 C-9.4375 9.6875 -9.4375 9.6875 -7 9 C-7 8.01 -7 7.02 -7 6 C-6.21625 5.7525 -5.4325 5.505 -4.625 5.25 C-1.67682892 3.84610901 -1.0975223 2.99324263 0 0 Z " fill="#B81D44" transform="translate(248,262)"/>
<path d="M0 0 C0 3 0 3 -2.625 5.91796875 C-3.74249406 7.01550756 -4.86785643 8.10507895 -6 9.1875 C-6.57234375 9.74630859 -7.1446875 10.30511719 -7.734375 10.88085938 C-9.14962788 12.26073093 -10.57397155 13.63126734 -12 15 C-12.61328125 13.140625 -12.61328125 13.140625 -13 11 C-11.1875 8.75 -11.1875 8.75 -9 7 C-8.34 7 -7.68 7 -7 7 C-6.690625 6.38125 -6.38125 5.7625 -6.0625 5.125 C-5.375 3.75 -4.6875 2.375 -4 1 C-1.9375 0.375 -1.9375 0.375 0 0 Z " fill="#B1123B" transform="translate(289,222)"/>
<path d="M0 0 C-0.14984164 4.94477428 -2.83605122 7.31042955 -6.11328125 10.64453125 C-8 12 -8 12 -12 12 C-12 11.34 -12 10.68 -12 10 C-11.34 10 -10.68 10 -10 10 C-10 9.34 -10 8.68 -10 8 C-9.34 8 -8.68 8 -8 8 C-8 7.01 -8 6.02 -8 5 C-6.68 5 -5.36 5 -4 5 C-4 3.68 -4 2.36 -4 1 C-2 0 -2 0 0 0 Z " fill="#C61250" transform="translate(276,235)"/>
<path d="M0 0 C-1.375 2 -1.375 2 -3 4 C-3.66 4 -4.32 4 -5 4 C-5 4.66 -5 5.32 -5 6 C-5.66 6 -6.32 6 -7 6 C-7 6.66 -7 7.32 -7 8 C-7.66 8 -8.32 8 -9 8 C-9.66 9.32 -10.32 10.64 -11 12 C-11.66 11.67 -12.32 11.34 -13 11 C-12.690625 10.401875 -12.38125 9.80375 -12.0625 9.1875 C-10.89790296 6.91043228 -10.89790296 6.91043228 -10 4 C-7.14517648 0.65296553 -4.40216481 -2.2010824 0 0 Z " fill="#BD134D" transform="translate(302,211)"/>
<path d="M0 0 C0.66 0.33 1.32 0.66 2 1 C0.47005208 2.23697917 -1.05989583 3.47395833 -2.58984375 4.7109375 C-4.13266437 5.9666391 -4.13266437 5.9666391 -5 8 C-5.99 8 -6.98 8 -8 8 C-8.28875 8.78375 -8.5775 9.5675 -8.875 10.375 C-10 13 -10 13 -12 15 C-12.99 15 -13.98 15 -15 15 C-15 14.34 -15 13.68 -15 13 C-14.34 13 -13.68 13 -13 13 C-13 12.34 -13 11.68 -13 11 C-12.34 11 -11.68 11 -11 11 C-11 10.34 -11 9.68 -11 9 C-10.34 9 -9.68 9 -9 9 C-8.814375 8.443125 -8.62875 7.88625 -8.4375 7.3125 C-6.33639286 3.93245808 -3.29334006 2.14859619 0 0 Z " fill="#CC1E55" transform="translate(190,300)"/>
<path d="M0 0 C0.66 0.33 1.32 0.66 2 1 C1.40514948 4.19732155 0.7880883 6.37191235 -1.80859375 8.44140625 C-3.84278281 9.69177934 -5.90509066 10.85505945 -8 12 C-8.99 12.66 -9.98 13.32 -11 14 C-9.32598022 10.04322598 -6.86850715 7.15535787 -4 4 C-3.34 4 -2.68 4 -2 4 C-2 3.34 -2 2.68 -2 2 C-1.34 2 -0.68 2 0 2 C0 1.34 0 0.68 0 0 Z " fill="#AF143C" transform="translate(138,354)"/>
<path d="M0 0 C0 3 0 3 -1 6 C-1.66 6 -2.32 6 -3 6 C-3.33 6.99 -3.66 7.98 -4 9 C-4.99 9 -5.98 9 -7 9 C-7.33 10.65 -7.66 12.3 -8 14 C-9.65 14.33 -11.3 14.66 -13 15 C-9.09489511 9.49280079 -4.90282356 4.64172645 0 0 Z " fill="#AD1448" transform="translate(174,315)"/>
<path d="M0 0 C0 4.09214774 -1.60222874 5.19193703 -4.3125 8.1875 C-5.11300781 9.08855469 -5.91351563 9.98960937 -6.73828125 10.91796875 C-9 13 -9 13 -12 13 C-10.8553125 11.6696875 -10.8553125 11.6696875 -9.6875 10.3125 C-8.00877536 8.31783561 -6.73689001 6.53692643 -5.4375 4.25 C-3.85546829 1.77377646 -2.70942835 1.0277142 0 0 Z " fill="#D60F3B" transform="translate(308,182)"/>
<path d="M0 0 C-1.40844718 3.21524305 -3.10344786 5.32183868 -5.625 7.75 C-6.57246094 8.67039063 -6.57246094 8.67039063 -7.5390625 9.609375 C-8.02117187 10.06828125 -8.50328125 10.5271875 -9 11 C-9.33 10.01 -9.66 9.02 -10 8 C-8.92578125 5.95703125 -8.92578125 5.95703125 -7.3125 3.8125 C-6.53326172 2.73935547 -6.53326172 2.73935547 -5.73828125 1.64453125 C-4 0 -4 0 0 0 Z " fill="#B6133C" transform="translate(321,189)"/>
<path d="M0 0 C1.65 0.33 3.3 0.66 5 1 C3.37660195 2.70884005 1.70680947 4.37446717 0 6 C-0.66 6 -1.32 6 -2 6 C-2.226875 6.61875 -2.45375 7.2375 -2.6875 7.875 C-4.37929835 10.61410209 -5.99244161 11.05024472 -9 12 C-8.60167969 11.55269531 -8.20335937 11.10539063 -7.79296875 10.64453125 C-4.82015875 7.25220061 -2.1717806 3.98159776 0 0 Z " fill="#E41A52" transform="translate(334,155)"/>
<path d="M0 0 C0.99 1.32 1.98 2.64 3 4 C1.35 5.98 -0.3 7.96 -2 10 C-3.34771696 7.78023089 -4.04398726 6.49852224 -3.8125 3.875 C-3 2 -3 2 0 0 Z " fill="#AD1655" transform="translate(398,98)"/>
<path d="M0 0 C0 3.99476331 -1.28869085 5.1421336 -4 8 C-6.75 9.3125 -6.75 9.3125 -9 10 C-9 10.66 -9 11.32 -9 12 C-10.65 12.33 -12.3 12.66 -14 13 C-11.12327963 9.32419063 -9.23039327 6.98299685 -5 5 C-3.29503463 3.37253306 -1.62102968 1.71108689 0 0 Z " fill="#EA0C3F" transform="translate(323,169)"/>
<path d="M0 0 C0.66 0.33 1.32 0.66 2 1 C0.64758974 5.05723077 -1.60926242 6.49085419 -5 9 C-5.99 9 -6.98 9 -8 9 C-6.29220059 5.01513471 -3.92814393 1.96407197 0 0 Z " fill="#7B2E52" transform="translate(96,403)"/>
<path d="M0 0 C0.99 0 1.98 0 3 0 C1.03030303 6.81818182 1.03030303 6.81818182 -2 9 C-2.99 9 -3.98 9 -5 9 C-4.34 6.69 -3.68 4.38 -3 2 C-2.01 2.33 -1.02 2.66 0 3 C0 2.01 0 1.02 0 0 Z " fill="#D00C4F" transform="translate(144,358)"/>
<path d="M0 0 C0.66 0 1.32 0 2 0 C0.53424802 3.37198902 -1.35181521 5.64987004 -3.9375 8.25 C-4.62714844 8.95640625 -5.31679687 9.6628125 -6.02734375 10.390625 C-8 12 -8 12 -11 12 C-11 11.34 -11 10.68 -11 10 C-10.21625 9.54625 -9.4325 9.0925 -8.625 8.625 C-5.8764051 6.92348887 -5.12078968 5.95480916 -4 3 C-3.01 3 -2.02 3 -1 3 C-0.67 2.01 -0.34 1.02 0 0 Z " fill="#ED0A3E" transform="translate(186,305)"/>
<path d="M0 0 C0 4.11770944 -1.20963894 6.04611597 -3.8125 9.1875 C-6.2587132 11.21436237 -7.88007931 11.65334215 -11 12 C-7.49102731 7.81576108 -3.91939465 3.80411834 0 0 Z " fill="#A01237" transform="translate(207,280)"/>
<path d="M0 0 C-0.33 1.65 -0.66 3.3 -1 5 C-1.66 5 -2.32 5 -3 5 C-3 5.66 -3 6.32 -3 7 C-3.99 6.67 -4.98 6.34 -6 6 C-6.99 6.495 -6.99 6.495 -8 7 C-6.13932792 2.84926997 -4.83061881 0 0 0 Z " fill="#8D1B39" transform="translate(102,398)"/>
<path d="M0 0 C-1.1427919 1.16964602 -2.28931715 2.33564556 -3.4375 3.5 C-4.07558594 4.1496875 -4.71367187 4.799375 -5.37109375 5.46875 C-7 7 -7 7 -8 7 C-7.67 4.69 -7.34 2.38 -7 0 C-3.86650268 -1.04449911 -3.01031744 -0.93423645 0 0 Z " fill="#BB1D3F" transform="translate(267,248)"/>
<path d="M0 0 C2 2 2 2 2.125 4.625 C2.08375 5.40875 2.0425 6.1925 2 7 C1.01 7.495 1.01 7.495 0 8 C0 7.34 0 6.68 0 6 C-1.65 6.33 -3.3 6.66 -5 7 C-3.70700306 4.11562221 -2.34058637 2.12780579 0 0 Z " fill="#B20F31" transform="translate(393,102)"/>
<path d="M0 0 C-0.33 1.32 -0.66 2.64 -1 4 C-1.66 4 -2.32 4 -3 4 C-3.28875 4.639375 -3.5775 5.27875 -3.875 5.9375 C-5 8 -5 8 -7 9 C-7.66 8.34 -8.32 7.68 -9 7 C-7.88121617 5.82737096 -6.75476949 4.66204862 -5.625 3.5 C-4.68527344 2.52546875 -4.68527344 2.52546875 -3.7265625 1.53125 C-2 0 -2 0 0 0 Z " fill="#BF1660" transform="translate(258,229)"/>
<path d="M0 0 C0.33 0.66 0.66 1.32 1 2 C0.26418258 3.1549921 -0.48930039 4.29874185 -1.25 5.4375 C-1.66765625 6.07558594 -2.0853125 6.71367187 -2.515625 7.37109375 C-4.27248877 9.29902057 -5.46089803 9.61479436 -8 10 C-7.67 8.68 -7.34 7.36 -7 6 C-6.34 6 -5.68 6 -5 6 C-5 5.34 -5 4.68 -5 4 C-4.34 4 -3.68 4 -3 4 C-3 3.34 -3 2.68 -3 2 C-2.01 1.34 -1.02 0.68 0 0 Z " fill="#B90F46" transform="translate(279,208)"/>
<path d="M0 0 C1.32 0.33 2.64 0.66 4 1 C3.34 1 2.68 1 2 1 C1.79375 1.556875 1.5875 2.11375 1.375 2.6875 C-0.55000774 5.92501302 -3.03850902 7.68231141 -6 10 C-5.34 8.02 -4.68 6.04 -4 4 C-3.01 4 -2.02 4 -1 4 C-0.67 2.68 -0.34 1.36 0 0 Z " fill="#E10C40" transform="translate(173,331)"/>
<path d="M0 0 C0 3 0 3 -1.3125 4.38671875 C-2.875 5.59114583 -4.4375 6.79557292 -6 8 C-5.6875 6.0625 -5.6875 6.0625 -5 4 C-4.01 3.67 -3.02 3.34 -2 3 C-2 2.34 -2 1.68 -2 1 C-1.34 0.67 -0.68 0.34 0 0 Z M-8 8 C-7.34 8.33 -6.68 8.66 -6 9 C-7.32 9.99 -8.64 10.98 -10 12 C-9.34 10.68 -8.68 9.36 -8 8 Z M-12 12 C-10 13 -10 13 -10 13 Z " fill="#EB0A3B" transform="translate(211,279)"/>
<path d="M0 0 C0.33 0.66 0.66 1.32 1 2 C0.07347299 3.17539996 -0.86663387 4.34010577 -1.8125 5.5 C-2.33457031 6.1496875 -2.85664063 6.799375 -3.39453125 7.46875 C-5 9 -5 9 -8 9 C-8 8.34 -8 7.68 -8 7 C-7.34 7 -6.68 7 -6 7 C-6 6.34 -6 5.68 -6 5 C-5.34 5 -4.68 5 -4 5 C-4 4.34 -4 3.68 -4 3 C-3.34 3 -2.68 3 -2 3 C-2 2.34 -2 1.68 -2 1 C-1.34 0.67 -0.68 0.34 0 0 Z " fill="#B7134E" transform="translate(301,187)"/>
<path d="M0 0 C0.66 0.33 1.32 0.66 2 1 C1.67 1.556875 1.34 2.11375 1 2.6875 C-0.1309601 5.30284522 -0.15662974 7.1806646 0 10 C-0.99 10.495 -0.99 10.495 -2 11 C-2 9.35 -2 7.7 -2 6 C-2.99 6.33 -3.98 6.66 -5 7 C-3.70700306 4.11562221 -2.34058637 2.12780579 0 0 Z " fill="#A50E3C" transform="translate(115,380)"/>
<path d="M0 0 C0 2.62113708 -0.31292445 4.50935112 -1 7 C-0.34 7 0.32 7 1 7 C1 7.66 1 8.32 1 9 C0.34 9 -0.32 9 -1 9 C-1.33 9.66 -1.66 10.32 -2 11 C-3.83691257 7.21812119 -4.15837626 5.05431692 -3 1 C-2.01 0.67 -1.02 0.34 0 0 Z " fill="#DE1F4C" transform="translate(129,366)"/>
<path d="M0 0 C0.33 0 0.66 0 1 0 C1.4375 2.125 1.4375 2.125 1 5 C-1.12689146 7.276147 -3.5023433 9.1458722 -6 11 C-6 9.68 -6 8.36 -6 7 C-5.34 6.67 -4.68 6.34 -4 6 C-4 5.34 -4 4.68 -4 4 C-2.68 4 -1.36 4 0 4 C0 2.68 0 1.36 0 0 Z " fill="#B01136" transform="translate(344,160)"/>
<path d="M0 0 C-0.35049575 3.24208567 -0.56221181 4.61527704 -3.0625 6.8125 C-3.701875 7.204375 -4.34125 7.59625 -5 8 C-5.1875 5.125 -5.1875 5.125 -5 2 C-2 0 -2 0 0 0 Z " fill="#BA194C" transform="translate(377,126)"/>
<path d="M0 0 C1.65 0 3.3 0 5 0 C3.50902342 3.7952131 1.24299151 5.61042731 -2 8 C-1.34 5.36 -0.68 2.72 0 0 Z " fill="#B11035" transform="translate(147,355)"/>
<path d="M0 0 C0.66 0 1.32 0 2 0 C2.36625971 4.51720311 2.36625971 4.51720311 0.625 6.8125 C-1 8 -1 8 -3 8 C-3 6.35 -3 4.7 -3 3 C-2.01 3 -1.02 3 0 3 C0 2.01 0 1.02 0 0 Z " fill="#D10C56" transform="translate(198,308)"/>
<path d="M0 0 C1.32 0 2.64 0 4 0 C2.70700306 2.88437779 1.34058637 4.87219421 -1 7 C-1.66 6.67 -2.32 6.34 -3 6 C-2.67 4.68 -2.34 3.36 -2 2 C-1.34 2 -0.68 2 0 2 C0 1.34 0 0.68 0 0 Z " fill="#B11241" transform="translate(202,305)"/>
<path d="M0 0 C0.66 0.99 1.32 1.98 2 3 C1.34 3 0.68 3 0 3 C0 3.66 0 4.32 0 5 C-0.66 5 -1.32 5 -2 5 C-2.33 5.99 -2.66 6.98 -3 8 C-3.33 8 -3.66 8 -4 8 C-4 6.02 -4 4.04 -4 2 C-2.68 1.34 -1.36 0.68 0 0 Z " fill="#CB1455" transform="translate(325,182)"/>
<path d="M0 0 C0.66 0.33 1.32 0.66 2 1 C-0.31 3.97 -2.62 6.94 -5 10 C-5.33 8.68 -5.66 7.36 -6 6 C-4.78515625 4.296875 -4.78515625 4.296875 -3.0625 2.75 C-2.21365234 1.96882812 -2.21365234 1.96882812 -1.34765625 1.171875 C-0.90292969 0.78515625 -0.45820313 0.3984375 0 0 Z " fill="#303136" transform="translate(360,169)"/>
<path d="M0 0 C0 3 0 3 -1.53125 4.60546875 C-2.1809375 5.12753906 -2.830625 5.64960937 -3.5 6.1875 C-4.1496875 6.71730469 -4.799375 7.24710937 -5.46875 7.79296875 C-5.9740625 8.19128906 -6.479375 8.58960937 -7 9 C-6.25645515 5.65404817 -5.31635097 3.58362224 -3 1 C-2.01 0.67 -1.02 0.34 0 0 Z " fill="#A1113D" transform="translate(384,119)"/>
<path d="M0 0 C1.32 0.33 2.64 0.66 4 1 C2.63016497 4.16115776 2.0109362 4.9927092 -1 7 C-1.33 5.35 -1.66 3.7 -2 2 C-1.34 2 -0.68 2 0 2 C0 1.34 0 0.68 0 0 Z " fill="#881338" transform="translate(401,95)"/>
<path d="M0 0 C0 3.54404336 -0.60989485 4.10267905 -2.875 6.6875 C-3.40867187 7.31011719 -3.94234375 7.93273437 -4.4921875 8.57421875 C-6 10 -6 10 -8 10 C-6.34908222 5.70761377 -3.26245434 3.1206085 0 0 Z " fill="#838387" transform="translate(314,218)"/>
<path d="M0 0 C1.65 0 3.3 0 5 0 C3.95125002 2.62187494 3.35068687 3.79371361 0.875 5.25 C0.25625 5.4975 -0.3625 5.745 -1 6 C-0.67 4.02 -0.34 2.04 0 0 Z " fill="#B01038" transform="translate(125,375)"/>
<path d="M0 0 C0.66 0 1.32 0 2 0 C1.690625 0.598125 1.38125 1.19625 1.0625 1.8125 C-0.10209704 4.08956772 -0.10209704 4.08956772 -1 7 C-3.0625 7.6875 -3.0625 7.6875 -5 8 C-4.67 6.35 -4.34 4.7 -4 3 C-3.01 2.67 -2.02 2.34 -1 2 C-0.67 1.34 -0.34 0.68 0 0 Z " fill="#E8093B" transform="translate(171,321)"/>
<path d="M0 0 C0.33 0 0.66 0 1 0 C1 2.97 1 5.94 1 9 C-0.32 8.34 -1.64 7.68 -3 7 C-2.01 4.69 -1.02 2.38 0 0 Z " fill="#2C2F33" transform="translate(412,285)"/>
<path d="M0 0 C0.33 0.99 0.66 1.98 1 3 C-0.28965176 4.37562854 -1.62689293 5.70766393 -3 7 C-3.66 7 -4.32 7 -5 7 C-4.60196439 4.11424181 -4.20990931 3.17810487 -1.9375 1.25 C-1.298125 0.8375 -0.65875 0.425 0 0 Z " fill="#E60C3E" transform="translate(217,272)"/>
<path d="M0 0 C0.33 0.66 0.66 1.32 1 2 C-0.8125 4.5 -0.8125 4.5 -3 7 C-3.99 7 -4.98 7 -6 7 C-6 6.34 -6 5.68 -6 5 C-5.34 5 -4.68 5 -4 5 C-4 4.34 -4 3.68 -4 3 C-3.34 3 -2.68 3 -2 3 C-2 2.34 -2 1.68 -2 1 C-1.34 0.67 -0.68 0.34 0 0 Z " fill="#B81054" transform="translate(181,308)"/>
<path d="M0 0 C-1.65 1.65 -3.3 3.3 -5 5 C-5.66 4.67 -6.32 4.34 -7 4 C-6.625 2.0625 -6.625 2.0625 -6 0 C-3.50907189 -1.24546405 -2.58919267 -0.7767578 0 0 Z " fill="#A50E34" transform="translate(225,289)"/>
<path d="M0 0 C1.32 0.66 2.64 1.32 4 2 C2.71034824 3.37562854 1.37310707 4.70766393 0 6 C-0.66 6 -1.32 6 -2 6 C-1.125 1.125 -1.125 1.125 0 0 Z " fill="#CE0C69" transform="translate(237,272)"/>
<path d="M0 0 C0.66 0 1.32 0 2 0 C2 1.98 2 3.96 2 6 C1.01 6.33 0.02 6.66 -1 7 C-1.33 7.66 -1.66 8.32 -2 9 C-2 7.68 -2 6.36 -2 5 C-1.34 5 -0.68 5 0 5 C0 3.35 0 1.7 0 0 Z " fill="#CA0B4D" transform="translate(154,348)"/>
<path d="M0 0 C0.33 0.99 0.66 1.98 1 3 C-1.97 5.475 -1.97 5.475 -5 8 C-5.66 7.67 -6.32 7.34 -7 7 C-4.69 4.69 -2.38 2.38 0 0 Z " fill="#A21539" transform="translate(287,200)"/>
<path d="M0 0 C0.66 0 1.32 0 2 0 C1.67 0.5775 1.34 1.155 1 1.75 C-0.27075898 4.19883862 -0.27075898 4.19883862 0 8 C-1.65 7.67 -3.3 7.34 -5 7 C-4.01 6.67 -3.02 6.34 -2 6 C-1.855625 5.195625 -1.71125 4.39125 -1.5625 3.5625 C-1 1 -1 1 0 0 Z " fill="#E10B46" transform="translate(312,193)"/>
<path d="M0 0 C0.66 0.33 1.32 0.66 2 1 C0.71937515 2.7074998 -0.61767557 4.37373596 -2 6 C-2.66 6 -3.32 6 -4 6 C-4 6.66 -4 7.32 -4 8 C-4.66 7.67 -5.32 7.34 -6 7 C-5.67 6.01 -5.34 5.02 -5 4 C-4.34 4 -3.68 4 -3 4 C-2.67 3.01 -2.34 2.02 -2 1 C-1.34 0.67 -0.68 0.34 0 0 Z " fill="#9E0E38" transform="translate(370,134)"/>
<path d="M0 0 C0 0.99 0 1.98 0 3 C-1.53125 4.38671875 -1.53125 4.38671875 -3.5 5.6875 C-4.47453125 6.34298828 -4.47453125 6.34298828 -5.46875 7.01171875 C-5.9740625 7.33785156 -6.479375 7.66398437 -7 8 C-7.33 7.01 -7.66 6.02 -8 5 C-7.34 5 -6.68 5 -6 5 C-5.67 4.34 -5.34 3.68 -5 3 C-3.68352881 2.30062468 -2.34977849 1.63270867 -1 1 C-0.67 0.67 -0.34 0.34 0 0 Z " fill="#CC0F50" transform="translate(377,118)"/>
<path d="M0 0 C0.66 0 1.32 0 2 0 C2 1.65 2 3.3 2 5 C0.68 5.33 -0.64 5.66 -2 6 C-1.125 1.125 -1.125 1.125 0 0 Z " fill="#DC0C4B" transform="translate(217,290)"/>
<path d="M0 0 C0 3.10551666 -0.5393715 4.35261084 -2 7 C-2.66 7 -3.32 7 -4 7 C-4.33 7.66 -4.66 8.32 -5 9 C-5.33 8.01 -5.66 7.02 -6 6 C-4 4 -2 2 0 0 Z " fill="#B82F5B" transform="translate(213,273)"/>
<path d="M0 0 C-0.33 1.65 -0.66 3.3 -1 5 C-1.99 5 -2.98 5 -4 5 C-4 3.68 -4 2.36 -4 1 C-2 0 -2 0 0 0 Z " fill="#D21C5C" transform="translate(276,235)"/>
<path d="M0 0 C0.66 0.33 1.32 0.66 2 1 C-0.31 3.31 -2.62 5.62 -5 8 C-5.33 7.01 -5.66 6.02 -6 5 C-4.02 3.35 -2.04 1.7 0 0 Z " fill="#961534" transform="translate(332,176)"/>
<path d="M0 0 C0.33 0.66 0.66 1.32 1 2 C-1.3125 4.5 -1.3125 4.5 -4 7 C-4.99 7 -5.98 7 -7 7 C-4.69 4.69 -2.38 2.38 0 0 Z " fill="#DF1042" transform="translate(332,159)"/>
<path d="M0 0 C1.65 0 3.3 0 5 0 C3.35 1.98 1.7 3.96 0 6 C-1.24546405 3.50907189 -0.7767578 2.58919267 0 0 Z " fill="#A81537" transform="translate(135,367)"/>
<path d="M0 0 C0 0.99 0 1.98 0 3 C-2.5 5.1875 -2.5 5.1875 -5 7 C-4.75 4.625 -4.75 4.625 -4 2 C-1.9375 0.6875 -1.9375 0.6875 0 0 Z " fill="#A61337" transform="translate(363,142)"/>
<path d="M0 0 C0.99 0 1.98 0 3 0 C3.33 1.65 3.66 3.3 4 5 C3.01 5.66 2.02 6.32 1 7 C0.67 4.69 0.34 2.38 0 0 Z " fill="#B32343" transform="translate(394,101)"/>
</svg>
